<?xml version="1.0" encoding="UTF-8" standalone="no"?>
<!DOCTYPE svg PUBLIC "-//W3C//DTD SVG 1.1//EN" "http://www.w3.org/Graphics/SVG/1.1/DTD/svg11.dtd">
<svg width="100%" height="100%" viewBox="0 0 82 82" version="1.1" xmlns="http://www.w3.org/2000/svg" xmlns:xlink="http://www.w3.org/1999/xlink" xml:space="preserve" xmlns:serif="http://www.serif.com/" style="fill-rule:evenodd;clip-rule:evenodd;stroke-linejoin:round;stroke-miterlimit:2;">
    <g transform="matrix(1,0,0,1,20,20)">
        <g transform="matrix(1,0,0,1,0,-10)">
            <g>
                <g transform="matrix(1,0,0,1,0,-10)">
                    <circle cx="21" cy="21" r="21" style="fill:rgb(94,25,106);"/>
                </g>
                <g transform="matrix(1,0,0,1,0.00560462,-10.1676)">
                    <path d="M29,15L29,27C29,28.104 28.104,29 27,29L15,29C13.896,29 13,28.104 13,27L13,15C13,13.896 13.896,13 15,13L27,13C28.104,13 29,13.896 29,15Z" style="fill:rgb(252,162,0);"/>
                </g>
            </g>
        </g>
        <g transform="matrix(1,0,0,1,-29.3765,-22.3492)">
            <path d="M31.55,58.734C30.613,58.734 29.799,58.563 29.107,58.221C28.415,57.878 27.884,57.393 27.514,56.763C27.144,56.134 26.959,55.402 26.959,54.568C26.959,53.412 27.178,52.385 27.614,51.489C28.051,50.592 28.643,49.898 29.39,49.406C30.138,48.914 30.967,48.668 31.88,48.668C32.73,48.668 33.375,48.887 33.815,49.323C34.256,49.76 34.476,50.336 34.476,51.052C34.476,51.532 34.391,51.917 34.222,52.208C34.053,52.499 33.811,52.645 33.497,52.645C33.276,52.645 33.103,52.594 32.977,52.492C32.852,52.389 32.789,52.24 32.789,52.043C32.789,51.972 32.804,51.843 32.836,51.654C32.883,51.418 32.907,51.229 32.907,51.087C32.907,50.372 32.525,50.014 31.762,50.014C31.243,50.014 30.747,50.183 30.275,50.521C29.803,50.859 29.422,51.357 29.131,52.014C28.84,52.671 28.694,53.451 28.694,54.356C28.694,55.3 28.958,56.03 29.485,56.545C30.012,57.06 30.79,57.318 31.821,57.318C32.332,57.318 32.85,57.253 33.373,57.123C33.896,56.993 34.476,56.795 35.113,56.527C35.231,56.48 35.33,56.456 35.408,56.456C35.534,56.456 35.628,56.504 35.691,56.598C35.754,56.692 35.786,56.814 35.786,56.964C35.786,57.444 35.526,57.798 35.007,58.026C34.448,58.27 33.868,58.449 33.266,58.563C32.665,58.677 32.092,58.734 31.55,58.734Z" style="fill-rule:nonzero;"/>
            <path d="M39.338,56.043C39.44,56.043 39.52,56.091 39.579,56.185C39.638,56.279 39.668,56.409 39.668,56.574C39.668,56.889 39.593,57.133 39.444,57.306C39.106,57.723 38.738,58.065 38.34,58.333C37.943,58.6 37.493,58.734 36.989,58.734C36.297,58.734 35.784,58.419 35.449,57.79C35.115,57.16 34.948,56.346 34.948,55.347C34.948,54.387 35.072,53.294 35.32,52.067C35.567,50.84 35.933,49.785 36.417,48.904C36.901,48.023 37.477,47.583 38.146,47.583C38.523,47.583 38.82,47.758 39.037,48.108C39.253,48.458 39.361,48.959 39.361,49.612C39.361,50.549 39.102,51.634 38.582,52.869C38.063,54.104 37.359,55.328 36.47,56.539C36.525,56.862 36.616,57.092 36.742,57.229C36.867,57.367 37.033,57.436 37.237,57.436C37.56,57.436 37.843,57.343 38.087,57.159C38.331,56.974 38.641,56.657 39.019,56.209C39.113,56.098 39.22,56.043 39.338,56.043ZM37.886,48.751C37.705,48.751 37.501,49.077 37.273,49.73C37.044,50.383 36.844,51.194 36.671,52.161C36.498,53.129 36.403,54.057 36.388,54.946C36.946,54.026 37.391,53.103 37.721,52.179C38.051,51.255 38.217,50.411 38.217,49.648C38.217,49.05 38.106,48.751 37.886,48.751Z" style="fill-rule:nonzero;"/>
            <path d="M40.258,52.397C39.928,52.397 39.68,52.321 39.515,52.167C39.349,52.014 39.267,51.799 39.267,51.524C39.267,51.249 39.375,51.019 39.591,50.834C39.808,50.649 40.077,50.556 40.4,50.556C40.691,50.556 40.927,50.627 41.108,50.769C41.289,50.91 41.379,51.111 41.379,51.371C41.379,51.685 41.277,51.935 41.072,52.12C40.868,52.305 40.596,52.397 40.258,52.397ZM40.164,58.734C39.652,58.734 39.281,58.553 39.048,58.191C38.816,57.829 38.7,57.349 38.7,56.751C38.7,56.397 38.746,55.943 38.836,55.389C38.927,54.834 39.043,54.317 39.184,53.837C39.255,53.585 39.349,53.412 39.467,53.318C39.585,53.223 39.774,53.176 40.034,53.176C40.435,53.176 40.636,53.31 40.636,53.577C40.636,53.774 40.561,54.23 40.411,54.946C40.223,55.811 40.128,56.397 40.128,56.704C40.128,56.94 40.16,57.121 40.223,57.247C40.286,57.373 40.392,57.436 40.541,57.436C40.683,57.436 40.86,57.337 41.072,57.141C41.285,56.944 41.568,56.633 41.922,56.209C42.016,56.098 42.122,56.043 42.24,56.043C42.343,56.043 42.423,56.091 42.482,56.185C42.541,56.279 42.571,56.409 42.571,56.574C42.571,56.889 42.496,57.133 42.347,57.306C41.568,58.258 40.84,58.734 40.164,58.734Z" style="fill-rule:nonzero;"/>
            <path d="M48.235,56.409C48.416,56.409 48.506,56.531 48.506,56.775C48.506,57.082 48.437,57.322 48.3,57.495C48.162,57.668 47.975,57.754 47.739,57.754L47.303,57.743C47.224,57.735 47.11,57.731 46.96,57.731C46.992,58.179 47.008,58.628 47.008,59.076C47.008,60.264 46.852,61.298 46.541,62.179C46.231,63.06 45.745,63.501 45.084,63.501C44.636,63.501 44.296,63.243 44.063,62.728C43.831,62.213 43.715,61.585 43.715,60.846C43.715,59.926 43.818,59.017 44.022,58.12C43.755,58.529 43.405,58.734 42.972,58.734C42.539,58.734 42.179,58.553 41.892,58.191C41.605,57.829 41.462,57.361 41.462,56.787C41.462,56.165 41.609,55.575 41.904,55.017C42.199,54.458 42.592,54.008 43.084,53.666C43.576,53.324 44.101,53.152 44.659,53.152C44.848,53.152 44.994,53.215 45.096,53.341C45.167,53.089 45.273,52.92 45.415,52.834C45.556,52.747 45.753,52.704 46.005,52.704C46.272,52.704 46.451,52.743 46.541,52.822C46.632,52.901 46.673,53.015 46.665,53.164C46.665,53.259 46.616,53.477 46.518,53.819C46.42,54.161 46.355,54.387 46.323,54.498C46.197,54.938 46.062,55.426 45.916,55.961C45.771,56.496 45.655,56.983 45.568,57.424C45.316,58.683 45.19,59.796 45.19,60.763C45.19,61.125 45.22,61.434 45.279,61.69C45.338,61.945 45.415,62.073 45.509,62.073C45.588,62.073 45.672,61.939 45.763,61.672C45.853,61.405 45.93,61.047 45.993,60.598C46.056,60.15 46.087,59.674 46.087,59.17C46.087,58.573 46.06,58.042 46.005,57.577C45.997,57.538 45.993,57.475 45.993,57.389C45.993,57.129 46.058,56.913 46.187,56.74C46.317,56.567 46.5,56.48 46.736,56.48C46.768,56.48 47.067,56.468 47.633,56.445C47.869,56.421 48.07,56.409 48.235,56.409ZM43.444,57.542C43.625,57.542 43.798,57.43 43.963,57.206C44.128,56.982 44.246,56.712 44.317,56.397L44.825,54.25C44.478,54.258 44.162,54.38 43.875,54.616C43.588,54.852 43.359,55.164 43.19,55.554C43.021,55.943 42.937,56.354 42.937,56.787C42.937,57.031 42.982,57.218 43.072,57.347C43.163,57.477 43.287,57.542 43.444,57.542Z" style="fill-rule:nonzero;"/>
            <path d="M48.719,58.734C48.365,58.734 48.075,58.571 47.851,58.244C47.627,57.918 47.515,57.511 47.515,57.023C47.515,56.433 47.554,55.892 47.633,55.4C47.712,54.909 47.841,54.387 48.022,53.837C48.101,53.601 48.211,53.432 48.353,53.329C48.494,53.227 48.719,53.176 49.025,53.176C49.198,53.176 49.318,53.204 49.385,53.259C49.452,53.314 49.486,53.396 49.486,53.506C49.486,53.569 49.442,53.782 49.356,54.144C49.277,54.435 49.214,54.698 49.167,54.934C49.01,55.76 48.931,56.311 48.931,56.586C48.931,56.751 48.951,56.867 48.99,56.934C49.029,57.001 49.092,57.035 49.179,57.035C49.297,57.035 49.444,56.917 49.621,56.681C49.798,56.445 49.987,56.087 50.188,55.607C50.388,55.127 50.583,54.537 50.772,53.837C50.835,53.601 50.931,53.432 51.061,53.329C51.191,53.227 51.385,53.176 51.645,53.176C51.826,53.176 51.952,53.198 52.023,53.241C52.093,53.284 52.129,53.365 52.129,53.483C52.129,53.679 52.03,54.218 51.834,55.099C51.614,56.106 51.503,56.728 51.503,56.964C51.503,57.113 51.535,57.229 51.598,57.312C51.661,57.395 51.743,57.436 51.846,57.436C52.003,57.436 52.19,57.339 52.406,57.147C52.622,56.954 52.912,56.641 53.273,56.209C53.368,56.098 53.474,56.043 53.592,56.043C53.694,56.043 53.775,56.091 53.834,56.185C53.893,56.279 53.922,56.409 53.922,56.574C53.922,56.889 53.848,57.133 53.698,57.306C53.36,57.723 52.996,58.065 52.607,58.333C52.217,58.6 51.775,58.734 51.279,58.734C50.902,58.734 50.624,58.588 50.447,58.297C50.27,58.006 50.182,57.597 50.182,57.07C50.048,57.605 49.847,58.016 49.58,58.303C49.313,58.59 49.025,58.734 48.719,58.734Z" style="fill-rule:nonzero;"/>
            <path d="M58.229,56.043C58.332,56.043 58.412,56.091 58.471,56.185C58.53,56.279 58.56,56.409 58.56,56.574C58.56,56.889 58.485,57.133 58.336,57.306C58.045,57.66 57.633,57.986 57.102,58.285C56.571,58.584 56.003,58.734 55.397,58.734C54.571,58.734 53.93,58.51 53.474,58.061C53.018,57.613 52.79,56.999 52.79,56.22C52.79,55.678 52.904,55.172 53.132,54.704C53.36,54.236 53.677,53.864 54.082,53.589C54.487,53.314 54.945,53.176 55.456,53.176C55.913,53.176 56.278,53.312 56.554,53.583C56.829,53.855 56.967,54.222 56.967,54.686C56.967,55.229 56.772,55.695 56.383,56.085C55.993,56.474 55.334,56.783 54.406,57.011C54.603,57.373 54.977,57.554 55.527,57.554C55.881,57.554 56.284,57.43 56.737,57.182C57.189,56.934 57.58,56.61 57.911,56.209C58.005,56.098 58.111,56.043 58.229,56.043ZM55.256,54.332C54.965,54.332 54.719,54.502 54.518,54.84C54.318,55.178 54.217,55.587 54.217,56.067L54.217,56.091C54.682,55.98 55.047,55.815 55.315,55.595C55.582,55.375 55.716,55.119 55.716,54.828C55.716,54.679 55.675,54.559 55.592,54.468C55.509,54.378 55.397,54.332 55.256,54.332Z" style="fill-rule:nonzero;"/>
            <path d="M62.371,54.793C62.544,54.793 62.692,54.854 62.814,54.976C62.936,55.097 62.997,55.249 62.997,55.43C62.997,55.532 62.973,55.642 62.926,55.76C62.8,56.051 62.623,56.295 62.395,56.492C62.167,56.688 61.915,56.787 61.64,56.787C61.419,56.787 61.232,56.708 61.079,56.551C60.926,56.393 60.849,56.181 60.849,55.914C60.849,55.764 60.857,55.603 60.873,55.43C60.888,55.304 60.896,55.217 60.896,55.17C60.896,55.107 60.882,55.06 60.855,55.029C60.827,54.997 60.794,54.981 60.755,54.981C60.644,54.981 60.495,55.113 60.306,55.377C60.117,55.64 59.929,55.988 59.74,56.421C59.551,56.854 59.398,57.31 59.28,57.79C59.193,58.167 59.095,58.419 58.985,58.545C58.874,58.671 58.694,58.734 58.442,58.734C58.143,58.734 57.932,58.576 57.81,58.262C57.689,57.947 57.628,57.444 57.628,56.751C57.628,55.729 57.773,54.757 58.064,53.837C58.135,53.609 58.251,53.442 58.412,53.335C58.574,53.229 58.8,53.176 59.091,53.176C59.248,53.176 59.358,53.196 59.421,53.235C59.484,53.274 59.516,53.349 59.516,53.459C59.516,53.585 59.457,53.868 59.339,54.309C59.26,54.623 59.197,54.899 59.15,55.135C59.103,55.371 59.063,55.662 59.032,56.008C59.291,55.331 59.582,54.781 59.905,54.356C60.228,53.931 60.542,53.628 60.849,53.447C61.156,53.266 61.435,53.176 61.687,53.176C61.915,53.176 62.09,53.241 62.212,53.371C62.334,53.501 62.395,53.691 62.395,53.943C62.395,54.092 62.352,54.376 62.265,54.793L62.371,54.793Z" style="fill-rule:nonzero;"/>
            <path d="M68.118,52.397C67.787,52.397 67.54,52.321 67.374,52.167C67.209,52.014 67.127,51.799 67.127,51.524C67.127,51.249 67.235,51.019 67.451,50.834C67.667,50.649 67.937,50.556 68.259,50.556C68.55,50.556 68.786,50.627 68.967,50.769C69.148,50.91 69.239,51.111 69.239,51.371C69.239,51.685 69.137,51.935 68.932,52.12C68.727,52.305 68.456,52.397 68.118,52.397ZM68.023,58.734C67.512,58.734 67.14,58.553 66.908,58.191C66.676,57.829 66.56,57.349 66.56,56.751C66.56,56.397 66.605,55.943 66.696,55.389C66.786,54.834 66.902,54.317 67.044,53.837C67.115,53.585 67.209,53.412 67.327,53.318C67.445,53.223 67.634,53.176 67.894,53.176C68.295,53.176 68.495,53.31 68.495,53.577C68.495,53.774 68.421,54.23 68.271,54.946C68.082,55.811 67.988,56.397 67.988,56.704C67.988,56.94 68.019,57.121 68.082,57.247C68.145,57.373 68.252,57.436 68.401,57.436C68.543,57.436 68.72,57.337 68.932,57.141C69.144,56.944 69.428,56.633 69.782,56.209C69.876,56.098 69.982,56.043 70.1,56.043C70.202,56.043 70.283,56.091 70.342,56.185C70.401,56.279 70.431,56.409 70.431,56.574C70.431,56.889 70.356,57.133 70.206,57.306C69.428,58.258 68.7,58.734 68.023,58.734Z" style="fill-rule:nonzero;"/>
            <path d="M71.729,58.734C70.958,58.734 70.358,58.516 69.929,58.079C69.5,57.642 69.286,57.066 69.286,56.35C69.286,55.713 69.412,55.154 69.664,54.675C69.915,54.195 70.242,53.825 70.643,53.565C71.044,53.306 71.465,53.176 71.906,53.176C72.338,53.176 72.675,53.304 72.914,53.56C73.154,53.815 73.274,54.144 73.274,54.545C73.274,54.875 73.202,55.154 73.056,55.383C72.911,55.611 72.72,55.725 72.484,55.725C72.334,55.725 72.214,55.689 72.124,55.619C72.033,55.548 71.988,55.449 71.988,55.324C71.988,55.269 71.996,55.206 72.012,55.135C72.028,55.064 72.039,55.013 72.047,54.981C72.087,54.863 72.106,54.753 72.106,54.651C72.106,54.549 72.081,54.47 72.029,54.415C71.978,54.36 71.906,54.332 71.811,54.332C71.63,54.332 71.461,54.413 71.304,54.574C71.146,54.736 71.021,54.954 70.926,55.229C70.832,55.505 70.785,55.807 70.785,56.138C70.785,57.05 71.182,57.507 71.976,57.507C72.299,57.507 72.647,57.398 73.021,57.182C73.394,56.966 73.762,56.641 74.124,56.209C74.218,56.098 74.325,56.043 74.443,56.043C74.545,56.043 74.625,56.091 74.684,56.185C74.743,56.279 74.773,56.409 74.773,56.574C74.773,56.873 74.698,57.117 74.549,57.306C74.179,57.762 73.737,58.114 73.221,58.362C72.706,58.61 72.208,58.734 71.729,58.734Z" style="fill-rule:nonzero;"/>
            <path d="M75.446,52.397C75.115,52.397 74.867,52.321 74.702,52.167C74.537,52.014 74.454,51.799 74.454,51.524C74.454,51.249 74.563,51.019 74.779,50.834C74.995,50.649 75.265,50.556 75.587,50.556C75.878,50.556 76.114,50.627 76.295,50.769C76.476,50.91 76.567,51.111 76.567,51.371C76.567,51.685 76.464,51.935 76.26,52.12C76.055,52.305 75.784,52.397 75.446,52.397ZM74.313,58.734C74.061,58.734 73.888,58.683 73.794,58.58C73.699,58.478 73.652,58.317 73.652,58.097C73.652,58.034 73.66,57.924 73.676,57.766C73.801,56.327 74.01,55.017 74.301,53.837C74.364,53.593 74.468,53.422 74.614,53.324C74.759,53.225 74.993,53.176 75.316,53.176C75.654,53.176 75.823,53.314 75.823,53.589C75.823,53.628 75.815,53.703 75.8,53.813C75.446,55.497 75.233,56.909 75.162,58.049C75.147,58.301 75.072,58.478 74.938,58.58C74.804,58.683 74.596,58.734 74.313,58.734Z" style="fill-rule:nonzero;"/>
            <path d="M27.178,70.043C27.28,70.043 27.361,70.091 27.42,70.185C27.479,70.279 27.508,70.409 27.508,70.574C27.508,70.889 27.433,71.133 27.284,71.306C26.946,71.723 26.582,72.065 26.192,72.333C25.803,72.6 25.36,72.734 24.865,72.734C24.448,72.734 24.11,72.584 23.85,72.285C23.402,72.576 22.934,72.726 22.446,72.734C22.344,74.252 22.112,75.521 21.75,76.539C21.388,77.558 20.857,78.067 20.157,78.067C19.732,78.067 19.417,77.914 19.213,77.607C19.008,77.3 18.906,76.876 18.906,76.333C18.906,75.562 19.083,74.663 19.437,73.637C19.791,72.61 20.338,71.479 21.077,70.244C21.077,69.095 21.069,68.297 21.053,67.849C21.046,67.62 21.136,67.44 21.325,67.306C21.514,67.172 21.75,67.105 22.033,67.105C22.198,67.105 22.318,67.139 22.393,67.206C22.468,67.272 22.509,67.404 22.517,67.601C22.517,67.797 22.521,67.943 22.528,68.037C22.78,67.723 23.028,67.497 23.272,67.359C23.516,67.221 23.775,67.152 24.051,67.152C24.491,67.152 24.851,67.329 25.13,67.683C25.41,68.037 25.549,68.502 25.549,69.076C25.549,69.493 25.482,69.898 25.349,70.291C25.215,70.685 25.03,71.042 24.794,71.365C24.959,71.412 25.097,71.436 25.207,71.436C25.467,71.436 25.714,71.341 25.95,71.153C26.186,70.964 26.489,70.649 26.859,70.209C26.953,70.098 27.06,70.043 27.178,70.043ZM22.505,71.601C22.788,71.538 23.05,71.383 23.29,71.135C23.53,70.887 23.72,70.58 23.862,70.215C24.003,69.849 24.074,69.465 24.074,69.064C24.074,68.828 24.027,68.649 23.933,68.527C23.838,68.405 23.712,68.344 23.555,68.344C23.272,68.344 22.93,68.643 22.528,69.241C22.521,69.587 22.517,70.095 22.517,70.763C22.517,71.125 22.513,71.404 22.505,71.601ZM20.251,76.911C20.463,76.911 20.64,76.449 20.782,75.525C20.924,74.6 21.014,73.45 21.053,72.073C20.715,72.86 20.448,73.611 20.251,74.327C20.054,75.043 19.956,75.644 19.956,76.132C19.956,76.384 19.986,76.577 20.045,76.71C20.104,76.844 20.172,76.911 20.251,76.911Z" style="fill-rule:nonzero;"/>
            <path d="M32.57,69.052C32.673,69.052 32.751,69.103 32.806,69.206C32.861,69.308 32.889,69.438 32.889,69.595C32.889,69.973 32.775,70.197 32.547,70.268C32.075,70.433 31.555,70.527 30.989,70.551C30.84,71.212 30.545,71.741 30.104,72.138C29.664,72.535 29.164,72.734 28.605,72.734C28.133,72.734 27.73,72.62 27.396,72.392C27.062,72.163 26.808,71.861 26.635,71.483C26.462,71.105 26.375,70.696 26.375,70.256C26.375,69.658 26.489,69.125 26.717,68.657C26.946,68.189 27.26,67.823 27.661,67.56C28.063,67.296 28.507,67.164 28.995,67.164C29.593,67.164 30.075,67.371 30.44,67.784C30.806,68.197 31.021,68.706 31.083,69.312C31.453,69.288 31.894,69.21 32.405,69.076C32.468,69.06 32.523,69.052 32.57,69.052ZM28.7,71.483C28.952,71.483 29.17,71.381 29.355,71.176C29.54,70.972 29.664,70.677 29.726,70.291C29.483,70.126 29.296,69.91 29.166,69.642C29.036,69.375 28.971,69.092 28.971,68.793C28.971,68.667 28.983,68.541 29.007,68.415L28.948,68.415C28.633,68.415 28.371,68.566 28.163,68.869C27.955,69.172 27.85,69.599 27.85,70.15C27.85,70.582 27.935,70.913 28.104,71.141C28.273,71.369 28.472,71.483 28.7,71.483Z" style="fill-rule:nonzero;"/>
            <path d="M33.078,72.734C32.724,72.734 32.435,72.571 32.21,72.244C31.986,71.918 31.874,71.511 31.874,71.023C31.874,70.433 31.913,69.892 31.992,69.4C32.071,68.909 32.201,68.387 32.381,67.837C32.46,67.601 32.57,67.432 32.712,67.329C32.853,67.227 33.078,67.176 33.384,67.176C33.558,67.176 33.678,67.204 33.744,67.259C33.811,67.314 33.845,67.396 33.845,67.506C33.845,67.569 33.801,67.782 33.715,68.144C33.636,68.435 33.573,68.698 33.526,68.934C33.369,69.76 33.29,70.311 33.29,70.586C33.29,70.751 33.31,70.867 33.349,70.934C33.388,71.001 33.451,71.035 33.538,71.035C33.656,71.035 33.803,70.917 33.98,70.681C34.157,70.445 34.346,70.087 34.547,69.607C34.747,69.127 34.942,68.537 35.131,67.837C35.194,67.601 35.29,67.432 35.42,67.329C35.55,67.227 35.744,67.176 36.004,67.176C36.185,67.176 36.311,67.198 36.382,67.241C36.452,67.284 36.488,67.365 36.488,67.483C36.488,67.679 36.39,68.218 36.193,69.099C35.973,70.106 35.862,70.728 35.862,70.964C35.862,71.113 35.894,71.229 35.957,71.312C36.02,71.395 36.102,71.436 36.205,71.436C36.362,71.436 36.549,71.339 36.765,71.147C36.982,70.954 37.271,70.641 37.632,70.209C37.727,70.098 37.833,70.043 37.951,70.043C38.053,70.043 38.134,70.091 38.193,70.185C38.252,70.279 38.281,70.409 38.281,70.574C38.281,70.889 38.207,71.133 38.057,71.306C37.719,71.723 37.355,72.065 36.966,72.333C36.576,72.6 36.134,72.734 35.638,72.734C35.261,72.734 34.983,72.588 34.806,72.297C34.629,72.006 34.541,71.597 34.541,71.07C34.407,71.605 34.207,72.016 33.939,72.303C33.672,72.59 33.384,72.734 33.078,72.734Z" style="fill-rule:nonzero;"/>
            <path d="M42.093,68.793C42.266,68.793 42.413,68.854 42.535,68.976C42.657,69.097 42.718,69.249 42.718,69.43C42.718,69.532 42.695,69.642 42.647,69.76C42.522,70.051 42.345,70.295 42.116,70.492C41.888,70.688 41.637,70.787 41.361,70.787C41.141,70.787 40.954,70.708 40.801,70.551C40.647,70.393 40.571,70.181 40.571,69.914C40.571,69.764 40.579,69.603 40.594,69.43C40.61,69.304 40.618,69.217 40.618,69.17C40.618,69.107 40.604,69.06 40.577,69.029C40.549,68.997 40.516,68.981 40.476,68.981C40.366,68.981 40.217,69.113 40.028,69.377C39.839,69.64 39.65,69.988 39.461,70.421C39.273,70.854 39.119,71.31 39.001,71.79C38.915,72.167 38.816,72.419 38.706,72.545C38.596,72.671 38.415,72.734 38.163,72.734C37.865,72.734 37.654,72.576 37.532,72.262C37.41,71.947 37.349,71.444 37.349,70.751C37.349,69.729 37.495,68.757 37.786,67.837C37.857,67.609 37.973,67.442 38.134,67.335C38.295,67.229 38.521,67.176 38.812,67.176C38.97,67.176 39.08,67.196 39.143,67.235C39.206,67.274 39.237,67.349 39.237,67.459C39.237,67.585 39.178,67.868 39.06,68.309C38.982,68.623 38.919,68.899 38.871,69.135C38.824,69.371 38.785,69.662 38.753,70.008C39.013,69.331 39.304,68.781 39.627,68.356C39.949,67.931 40.264,67.628 40.571,67.447C40.877,67.266 41.157,67.176 41.408,67.176C41.637,67.176 41.812,67.241 41.934,67.371C42.056,67.501 42.116,67.691 42.116,67.943C42.116,68.092 42.073,68.376 41.987,68.793L42.093,68.793Z" style="fill-rule:nonzero;"/>
            <path d="M47.745,72.734C47.257,72.734 46.868,72.557 46.577,72.203C46.286,71.849 46.14,71.385 46.14,70.81C46.14,70.181 46.286,69.585 46.577,69.023C46.868,68.46 47.255,68.008 47.739,67.666C48.223,67.324 48.736,67.152 49.279,67.152C49.452,67.152 49.568,67.186 49.627,67.253C49.686,67.32 49.735,67.44 49.775,67.613C49.94,67.581 50.113,67.565 50.294,67.565C50.679,67.565 50.872,67.703 50.872,67.978C50.872,68.144 50.813,68.537 50.695,69.158C50.514,70.063 50.424,70.692 50.424,71.046C50.424,71.164 50.453,71.259 50.512,71.33C50.571,71.4 50.648,71.436 50.742,71.436C50.892,71.436 51.073,71.339 51.285,71.147C51.497,70.954 51.785,70.641 52.146,70.209C52.241,70.098 52.347,70.043 52.465,70.043C52.567,70.043 52.648,70.091 52.707,70.185C52.766,70.279 52.795,70.409 52.795,70.574C52.795,70.889 52.721,71.133 52.571,71.306C52.249,71.707 51.907,72.045 51.545,72.321C51.183,72.596 50.833,72.734 50.494,72.734C50.235,72.734 49.997,72.645 49.781,72.468C49.564,72.291 49.401,72.049 49.291,71.743C48.882,72.403 48.367,72.734 47.745,72.734ZM48.17,71.542C48.343,71.542 48.508,71.44 48.665,71.235C48.823,71.031 48.937,70.759 49.008,70.421L49.444,68.25C49.114,68.258 48.809,68.382 48.53,68.622C48.251,68.861 48.028,69.178 47.863,69.571C47.698,69.965 47.615,70.382 47.615,70.822C47.615,71.066 47.664,71.247 47.763,71.365C47.861,71.483 47.997,71.542 48.17,71.542Z" style="fill:rgb(255,140,0);fill-rule:nonzero;"/>
            <path d="M52.677,72.734C52.379,72.734 52.168,72.576 52.046,72.262C51.924,71.947 51.863,71.444 51.863,70.751C51.863,69.729 52.009,68.757 52.3,67.837C52.371,67.609 52.487,67.442 52.648,67.335C52.809,67.229 53.035,67.176 53.326,67.176C53.484,67.176 53.594,67.196 53.657,67.235C53.72,67.274 53.751,67.349 53.751,67.459C53.751,67.585 53.692,67.868 53.574,68.309C53.496,68.623 53.433,68.899 53.385,69.135C53.338,69.371 53.299,69.662 53.267,70.008C53.527,69.331 53.818,68.781 54.141,68.356C54.463,67.931 54.78,67.628 55.091,67.447C55.401,67.266 55.686,67.176 55.946,67.176C56.457,67.176 56.713,67.432 56.713,67.943C56.713,68.045 56.678,68.293 56.607,68.686C56.544,69.001 56.512,69.198 56.512,69.276C56.512,69.552 56.611,69.689 56.807,69.689C57.028,69.689 57.311,69.516 57.657,69.17C57.759,69.068 57.866,69.017 57.976,69.017C58.078,69.017 58.159,69.062 58.218,69.153C58.277,69.243 58.306,69.363 58.306,69.512C58.306,69.803 58.227,70.032 58.07,70.197C57.85,70.425 57.592,70.62 57.297,70.781C57.002,70.942 56.689,71.023 56.359,71.023C55.942,71.023 55.626,70.917 55.409,70.704C55.193,70.492 55.085,70.205 55.085,69.843C55.085,69.725 55.096,69.607 55.12,69.489C55.136,69.331 55.144,69.225 55.144,69.17C55.144,69.044 55.1,68.981 55.014,68.981C54.896,68.981 54.741,69.113 54.548,69.377C54.355,69.64 54.164,69.988 53.975,70.421C53.787,70.854 53.633,71.31 53.515,71.79C53.429,72.16 53.328,72.409 53.214,72.539C53.1,72.669 52.921,72.734 52.677,72.734Z" style="fill:rgb(255,140,0);fill-rule:nonzero;"/>
            <path d="M58.046,72.734C57.748,72.734 57.537,72.576 57.415,72.262C57.293,71.947 57.232,71.444 57.232,70.751C57.232,69.729 57.378,68.757 57.669,67.837C57.74,67.609 57.856,67.442 58.017,67.335C58.178,67.229 58.404,67.176 58.695,67.176C58.853,67.176 58.963,67.196 59.026,67.235C59.089,67.274 59.12,67.349 59.12,67.459C59.12,67.585 59.061,67.868 58.943,68.309C58.865,68.623 58.802,68.899 58.754,69.135C58.707,69.371 58.668,69.662 58.636,70.008C58.896,69.331 59.187,68.781 59.51,68.356C59.832,67.931 60.149,67.628 60.46,67.447C60.77,67.266 61.055,67.176 61.315,67.176C61.826,67.176 62.082,67.432 62.082,67.943C62.082,68.045 62.047,68.293 61.976,68.686C61.913,69.001 61.881,69.198 61.881,69.276C61.881,69.552 61.98,69.689 62.176,69.689C62.397,69.689 62.68,69.516 63.026,69.17C63.128,69.068 63.235,69.017 63.345,69.017C63.447,69.017 63.528,69.062 63.587,69.153C63.646,69.243 63.675,69.363 63.675,69.512C63.675,69.803 63.596,70.032 63.439,70.197C63.219,70.425 62.961,70.62 62.666,70.781C62.371,70.942 62.058,71.023 61.728,71.023C61.311,71.023 60.995,70.917 60.778,70.704C60.562,70.492 60.454,70.205 60.454,69.843C60.454,69.725 60.465,69.607 60.489,69.489C60.505,69.331 60.513,69.225 60.513,69.17C60.513,69.044 60.469,68.981 60.383,68.981C60.265,68.981 60.11,69.113 59.917,69.377C59.724,69.64 59.533,69.988 59.344,70.421C59.156,70.854 59.002,71.31 58.884,71.79C58.798,72.16 58.697,72.409 58.583,72.539C58.469,72.669 58.29,72.734 58.046,72.734Z" style="fill:rgb(255,140,0);fill-rule:nonzero;"/>
            <path d="M67.84,70.043C67.943,70.043 68.023,70.091 68.082,70.185C68.141,70.279 68.171,70.409 68.171,70.574C68.171,70.889 68.096,71.133 67.947,71.306C67.656,71.66 67.245,71.986 66.714,72.285C66.183,72.584 65.614,72.734 65.008,72.734C64.182,72.734 63.541,72.51 63.085,72.061C62.629,71.613 62.401,70.999 62.401,70.22C62.401,69.678 62.515,69.172 62.743,68.704C62.971,68.236 63.288,67.864 63.693,67.589C64.098,67.314 64.556,67.176 65.067,67.176C65.524,67.176 65.89,67.312 66.165,67.583C66.44,67.855 66.578,68.222 66.578,68.686C66.578,69.229 66.383,69.695 65.994,70.085C65.604,70.474 64.946,70.783 64.017,71.011C64.214,71.373 64.588,71.554 65.138,71.554C65.492,71.554 65.895,71.43 66.348,71.182C66.8,70.934 67.191,70.61 67.522,70.209C67.616,70.098 67.722,70.043 67.84,70.043ZM64.867,68.332C64.576,68.332 64.33,68.502 64.129,68.84C63.929,69.178 63.828,69.587 63.828,70.067L63.828,70.091C64.293,69.98 64.658,69.815 64.926,69.595C65.193,69.375 65.327,69.119 65.327,68.828C65.327,68.679 65.286,68.559 65.203,68.468C65.121,68.378 65.008,68.332 64.867,68.332ZM66.472,66.409C66.291,66.409 66.145,66.364 66.035,66.273C65.925,66.183 65.854,66.016 65.823,65.772L65.551,63.683L64.525,65.772C64.407,66.016 64.281,66.181 64.147,66.267C64.013,66.354 63.864,66.397 63.699,66.397C63.533,66.397 63.402,66.36 63.303,66.285C63.205,66.21 63.156,66.102 63.156,65.961C63.156,65.827 63.199,65.685 63.286,65.536L64.607,63.258C64.749,63.015 64.908,62.832 65.085,62.71C65.262,62.588 65.473,62.527 65.716,62.527C65.952,62.527 66.137,62.598 66.271,62.739C66.405,62.881 66.507,63.105 66.578,63.412L67.097,65.536C67.121,65.63 67.132,65.717 67.132,65.795C67.132,65.992 67.068,66.144 66.938,66.25C66.808,66.356 66.653,66.409 66.472,66.409Z" style="fill:rgb(255,140,0);fill-rule:nonzero;"/>
            <path d="M72.478,70.043C72.58,70.043 72.661,70.091 72.72,70.185C72.779,70.279 72.808,70.409 72.808,70.574C72.808,70.889 72.734,71.133 72.584,71.306C72.246,71.723 71.876,72.065 71.475,72.333C71.074,72.6 70.613,72.734 70.094,72.734C68.489,72.734 67.687,71.605 67.687,69.347C67.687,69.001 67.699,68.651 67.722,68.297L67.262,68.297C67.026,68.297 66.867,68.254 66.784,68.167C66.702,68.081 66.66,67.943 66.66,67.754C66.66,67.314 66.837,67.093 67.191,67.093L67.864,67.093C67.998,66.228 68.202,65.437 68.478,64.722C68.753,64.006 69.085,63.435 69.475,63.011C69.864,62.586 70.283,62.373 70.731,62.373C71.062,62.373 71.321,62.519 71.51,62.81C71.699,63.101 71.793,63.467 71.793,63.907C71.793,65.127 71.282,66.189 70.259,67.093L71.581,67.093C71.707,67.093 71.797,67.121 71.852,67.176C71.908,67.231 71.935,67.333 71.935,67.483C71.935,68.026 71.491,68.297 70.602,68.297L69.162,68.297C69.146,68.69 69.138,68.997 69.138,69.217C69.138,70.036 69.235,70.61 69.428,70.94C69.62,71.271 69.925,71.436 70.342,71.436C70.68,71.436 70.979,71.334 71.239,71.129C71.498,70.924 71.805,70.618 72.159,70.209C72.254,70.098 72.36,70.043 72.478,70.043ZM70.413,63.506C70.295,63.506 70.163,63.654 70.018,63.949C69.872,64.244 69.734,64.653 69.605,65.176C69.475,65.699 69.367,66.279 69.28,66.916C69.744,66.515 70.092,66.065 70.324,65.565C70.556,65.066 70.672,64.611 70.672,64.202C70.672,63.738 70.586,63.506 70.413,63.506Z" style="fill:rgb(255,140,0);fill-rule:nonzero;"/>
            <path d="M77.115,70.043C77.218,70.043 77.298,70.091 77.357,70.185C77.416,70.279 77.446,70.409 77.446,70.574C77.446,70.889 77.371,71.133 77.221,71.306C76.93,71.66 76.519,71.986 75.988,72.285C75.457,72.584 74.889,72.734 74.283,72.734C73.457,72.734 72.816,72.51 72.36,72.061C71.904,71.613 71.675,70.999 71.675,70.22C71.675,69.678 71.79,69.172 72.018,68.704C72.246,68.236 72.562,67.864 72.968,67.589C73.373,67.314 73.831,67.176 74.342,67.176C74.799,67.176 75.164,67.312 75.44,67.583C75.715,67.855 75.853,68.222 75.853,68.686C75.853,69.229 75.658,69.695 75.269,70.085C74.879,70.474 74.22,70.783 73.292,71.011C73.489,71.373 73.862,71.554 74.413,71.554C74.767,71.554 75.17,71.43 75.623,71.182C76.075,70.934 76.466,70.61 76.797,70.209C76.891,70.098 76.997,70.043 77.115,70.043ZM74.142,68.332C73.851,68.332 73.605,68.502 73.404,68.84C73.204,69.178 73.103,69.587 73.103,70.067L73.103,70.091C73.567,69.98 73.933,69.815 74.201,69.595C74.468,69.375 74.602,69.119 74.602,68.828C74.602,68.679 74.561,68.559 74.478,68.468C74.395,68.378 74.283,68.332 74.142,68.332Z" style="fill:rgb(255,140,0);fill-rule:nonzero;"/>
            <path d="M81.257,68.793C81.43,68.793 81.578,68.854 81.7,68.976C81.822,69.097 81.882,69.249 81.882,69.43C81.882,69.532 81.859,69.642 81.812,69.76C81.686,70.051 81.509,70.295 81.281,70.492C81.053,70.688 80.801,70.787 80.525,70.787C80.305,70.787 80.118,70.708 79.965,70.551C79.812,70.393 79.735,70.181 79.735,69.914C79.735,69.764 79.743,69.603 79.758,69.43C79.774,69.304 79.782,69.217 79.782,69.17C79.782,69.107 79.768,69.06 79.741,69.029C79.713,68.997 79.68,68.981 79.64,68.981C79.53,68.981 79.381,69.113 79.192,69.377C79.003,69.64 78.814,69.988 78.626,70.421C78.437,70.854 78.283,71.31 78.165,71.79C78.079,72.167 77.981,72.419 77.87,72.545C77.76,72.671 77.579,72.734 77.328,72.734C77.029,72.734 76.818,72.576 76.696,72.262C76.574,71.947 76.513,71.444 76.513,70.751C76.513,69.729 76.659,68.757 76.95,67.837C77.021,67.609 77.137,67.442 77.298,67.335C77.459,67.229 77.686,67.176 77.977,67.176C78.134,67.176 78.244,67.196 78.307,67.235C78.37,67.274 78.401,67.349 78.401,67.459C78.401,67.585 78.342,67.868 78.224,68.309C78.146,68.623 78.083,68.899 78.036,69.135C77.988,69.371 77.949,69.662 77.918,70.008C78.177,69.331 78.468,68.781 78.791,68.356C79.113,67.931 79.428,67.628 79.735,67.447C80.042,67.266 80.321,67.176 80.573,67.176C80.801,67.176 80.976,67.241 81.098,67.371C81.22,67.501 81.281,67.691 81.281,67.943C81.281,68.092 81.237,68.376 81.151,68.793L81.257,68.793Z" style="fill:rgb(255,140,0);fill-rule:nonzero;"/>
            <rect x="45.727" y="73.56" width="36.037" height="0.59" style="fill:rgb(255,140,0);fill-rule:nonzero;"/>
        </g>
        <g transform="matrix(0.00442255,-0.0206618,-0.0322485,-0.00690263,-11.9483,74.3131)">
            <path d="M3128.36,353.559C3122.77,354.613 3118.89,357.492 3114.79,359.695C3020.61,410.469 2922.06,449.754 2817.41,472.953C2656.47,508.617 2500.16,492.289 2348.84,428.629C2287.94,403.004 2233.82,365.754 2186.74,319.297C2152.76,285.766 2128.08,246.051 2117.39,198.77C2115.38,189.871 2113.99,180.746 2116.28,171.602C2117.42,167.004 2119.27,162.75 2124.47,161.586C2129.82,160.398 2132.92,163.777 2135.72,167.672C2144.46,179.836 2153.83,191.594 2161.96,204.148C2200.58,263.754 2253.73,306.68 2315.89,339.43C2395.52,381.387 2480.76,403.172 2570.02,411.375C2686.31,422.063 2798.25,402.801 2907.72,364.629C2963.95,345.023 3019,322.875 3070.84,293.316C3073.48,291.813 3076.02,290.129 3078.56,288.461C3078.87,288.258 3078.86,287.578 3079.04,286.969C3076.27,285.063 3073.18,286.148 3070.3,286.203C3017.96,287.203 2965.66,287.297 2913.62,280.348C2899.97,278.527 2886.68,275.23 2873.97,269.832C2868.1,267.336 2862.53,264.281 2857.95,259.754C2847.96,249.859 2850.52,238.836 2864.06,235.125C2885.94,229.133 2908.34,226.02 2930.99,225.219C2976.67,223.605 3022.38,222.457 3068.06,220.801C3123.75,218.773 3178.9,211.91 3233.59,201.258C3236.32,200.727 3239.09,200.211 3241.86,199.93C3266.97,197.371 3285.14,216.672 3281.14,241.625C3279.79,250.02 3276.23,257.613 3272.36,265.063C3264.61,279.957 3255.68,294.148 3246.42,308.113C3226.49,338.172 3206.44,368.152 3186.3,398.066C3175.62,413.902 3163.43,428.523 3149.48,441.617C3139.43,451.043 3131.1,461.945 3122.48,472.613C3117.06,479.328 3111.64,486.066 3105.93,492.539C3099.28,500.063 3091.64,502.234 3084.25,499.219C3076.88,496.215 3072.16,488.188 3072.46,478.723C3072.73,470.184 3075.18,462.047 3079.32,454.746C3097.25,423.137 3106.82,387.426 3127.34,357.117C3127.83,356.391 3127.86,355.355 3128.36,353.559Z"/>
        </g>
    </g>
</svg>
