<?xml version="1.0" encoding="UTF-8" standalone="no"?>
<!DOCTYPE svg PUBLIC "-//W3C//DTD SVG 1.1//EN" "http://www.w3.org/Graphics/SVG/1.1/DTD/svg11.dtd">
<svg width="50%" height="50%" viewBox="0 0 82 82" version="1.1" xmlns="http://www.w3.org/2000/svg" xmlns:xlink="http://www.w3.org/1999/xlink" xml:space="preserve" xmlns:serif="http://www.serif.com/" style="fill-rule:evenodd;clip-rule:evenodd;stroke-linejoin:round;stroke-miterlimit:2;">
    <g transform="matrix(1,0,0,1,20,20)">
        <g transform="matrix(1,0,0,1,0,-10)">
            <g>
                <g transform="matrix(1,0,0,1,0,-10)">
                    <circle cx="21" cy="21" r="21" style="fill:rgb(94,25,106);"/>
                </g>
                <g transform="matrix(-3.82857e-16,1,-1,-3.82857e-16,45,-13)">
                    <path d="M25.789,14.578L32.553,28.106C32.692,28.384 32.764,28.69 32.764,29C32.764,30.097 31.861,31 30.764,31C30.764,31 30.763,31 30.763,31L17.237,31C16.14,31 15.237,30.097 15.237,29C15.237,28.69 15.309,28.384 15.448,28.106L22.212,14.578C22.55,13.901 23.245,13.472 24.001,13.472C24.757,13.472 25.452,13.901 25.79,14.578L25.789,14.578Z" style="fill:rgb(0,252,16);fill-rule:nonzero;"/>
                </g>
            </g>
        </g>
        <g transform="matrix(1,0,0,1,-29.3765,-22.3492)">
            <path d="M31.55,58.734C30.613,58.734 29.799,58.563 29.107,58.221C28.415,57.878 27.884,57.393 27.514,56.763C27.144,56.134 26.959,55.402 26.959,54.568C26.959,53.412 27.178,52.385 27.614,51.489C28.051,50.592 28.643,49.898 29.39,49.406C30.138,48.914 30.967,48.668 31.88,48.668C32.73,48.668 33.375,48.887 33.815,49.323C34.256,49.76 34.476,50.336 34.476,51.052C34.476,51.532 34.391,51.917 34.222,52.208C34.053,52.499 33.811,52.645 33.497,52.645C33.276,52.645 33.103,52.594 32.977,52.492C32.852,52.389 32.789,52.24 32.789,52.043C32.789,51.972 32.804,51.843 32.836,51.654C32.883,51.418 32.907,51.229 32.907,51.087C32.907,50.372 32.525,50.014 31.762,50.014C31.243,50.014 30.747,50.183 30.275,50.521C29.803,50.859 29.422,51.357 29.131,52.014C28.84,52.671 28.694,53.451 28.694,54.356C28.694,55.3 28.958,56.03 29.485,56.545C30.012,57.06 30.79,57.318 31.821,57.318C32.332,57.318 32.85,57.253 33.373,57.123C33.896,56.993 34.476,56.795 35.113,56.527C35.231,56.48 35.33,56.456 35.408,56.456C35.534,56.456 35.628,56.504 35.691,56.598C35.754,56.692 35.786,56.814 35.786,56.964C35.786,57.444 35.526,57.798 35.007,58.026C34.448,58.27 33.868,58.449 33.266,58.563C32.665,58.677 32.092,58.734 31.55,58.734Z" style="fill-rule:nonzero;"/>
            <path d="M39.338,56.043C39.44,56.043 39.52,56.091 39.579,56.185C39.638,56.279 39.668,56.409 39.668,56.574C39.668,56.889 39.593,57.133 39.444,57.306C39.106,57.723 38.738,58.065 38.34,58.333C37.943,58.6 37.493,58.734 36.989,58.734C36.297,58.734 35.784,58.419 35.449,57.79C35.115,57.16 34.948,56.346 34.948,55.347C34.948,54.387 35.072,53.294 35.32,52.067C35.567,50.84 35.933,49.785 36.417,48.904C36.901,48.023 37.477,47.583 38.146,47.583C38.523,47.583 38.82,47.758 39.037,48.108C39.253,48.458 39.361,48.959 39.361,49.612C39.361,50.549 39.102,51.634 38.582,52.869C38.063,54.104 37.359,55.328 36.47,56.539C36.525,56.862 36.616,57.092 36.742,57.229C36.867,57.367 37.033,57.436 37.237,57.436C37.56,57.436 37.843,57.343 38.087,57.159C38.331,56.974 38.641,56.657 39.019,56.209C39.113,56.098 39.22,56.043 39.338,56.043ZM37.886,48.751C37.705,48.751 37.501,49.077 37.273,49.73C37.044,50.383 36.844,51.194 36.671,52.161C36.498,53.129 36.403,54.057 36.388,54.946C36.946,54.026 37.391,53.103 37.721,52.179C38.051,51.255 38.217,50.411 38.217,49.648C38.217,49.05 38.106,48.751 37.886,48.751Z" style="fill-rule:nonzero;"/>
            <path d="M40.258,52.397C39.928,52.397 39.68,52.321 39.515,52.167C39.349,52.014 39.267,51.799 39.267,51.524C39.267,51.249 39.375,51.019 39.591,50.834C39.808,50.649 40.077,50.556 40.4,50.556C40.691,50.556 40.927,50.627 41.108,50.769C41.289,50.91 41.379,51.111 41.379,51.371C41.379,51.685 41.277,51.935 41.072,52.12C40.868,52.305 40.596,52.397 40.258,52.397ZM40.164,58.734C39.652,58.734 39.281,58.553 39.048,58.191C38.816,57.829 38.7,57.349 38.7,56.751C38.7,56.397 38.746,55.943 38.836,55.389C38.927,54.834 39.043,54.317 39.184,53.837C39.255,53.585 39.349,53.412 39.467,53.318C39.585,53.223 39.774,53.176 40.034,53.176C40.435,53.176 40.636,53.31 40.636,53.577C40.636,53.774 40.561,54.23 40.411,54.946C40.223,55.811 40.128,56.397 40.128,56.704C40.128,56.94 40.16,57.121 40.223,57.247C40.286,57.373 40.392,57.436 40.541,57.436C40.683,57.436 40.86,57.337 41.072,57.141C41.285,56.944 41.568,56.633 41.922,56.209C42.016,56.098 42.122,56.043 42.24,56.043C42.343,56.043 42.423,56.091 42.482,56.185C42.541,56.279 42.571,56.409 42.571,56.574C42.571,56.889 42.496,57.133 42.347,57.306C41.568,58.258 40.84,58.734 40.164,58.734Z" style="fill-rule:nonzero;"/>
            <path d="M48.235,56.409C48.416,56.409 48.506,56.531 48.506,56.775C48.506,57.082 48.437,57.322 48.3,57.495C48.162,57.668 47.975,57.754 47.739,57.754L47.303,57.743C47.224,57.735 47.11,57.731 46.96,57.731C46.992,58.179 47.008,58.628 47.008,59.076C47.008,60.264 46.852,61.298 46.541,62.179C46.231,63.06 45.745,63.501 45.084,63.501C44.636,63.501 44.296,63.243 44.063,62.728C43.831,62.213 43.715,61.585 43.715,60.846C43.715,59.926 43.818,59.017 44.022,58.12C43.755,58.529 43.405,58.734 42.972,58.734C42.539,58.734 42.179,58.553 41.892,58.191C41.605,57.829 41.462,57.361 41.462,56.787C41.462,56.165 41.609,55.575 41.904,55.017C42.199,54.458 42.592,54.008 43.084,53.666C43.576,53.324 44.101,53.152 44.659,53.152C44.848,53.152 44.994,53.215 45.096,53.341C45.167,53.089 45.273,52.92 45.415,52.834C45.556,52.747 45.753,52.704 46.005,52.704C46.272,52.704 46.451,52.743 46.541,52.822C46.632,52.901 46.673,53.015 46.665,53.164C46.665,53.259 46.616,53.477 46.518,53.819C46.42,54.161 46.355,54.387 46.323,54.498C46.197,54.938 46.062,55.426 45.916,55.961C45.771,56.496 45.655,56.983 45.568,57.424C45.316,58.683 45.19,59.796 45.19,60.763C45.19,61.125 45.22,61.434 45.279,61.69C45.338,61.945 45.415,62.073 45.509,62.073C45.588,62.073 45.672,61.939 45.763,61.672C45.853,61.405 45.93,61.047 45.993,60.598C46.056,60.15 46.087,59.674 46.087,59.17C46.087,58.573 46.06,58.042 46.005,57.577C45.997,57.538 45.993,57.475 45.993,57.389C45.993,57.129 46.058,56.913 46.187,56.74C46.317,56.567 46.5,56.48 46.736,56.48C46.768,56.48 47.067,56.468 47.633,56.445C47.869,56.421 48.07,56.409 48.235,56.409ZM43.444,57.542C43.625,57.542 43.798,57.43 43.963,57.206C44.128,56.982 44.246,56.712 44.317,56.397L44.825,54.25C44.478,54.258 44.162,54.38 43.875,54.616C43.588,54.852 43.359,55.164 43.19,55.554C43.021,55.943 42.937,56.354 42.937,56.787C42.937,57.031 42.982,57.218 43.072,57.347C43.163,57.477 43.287,57.542 43.444,57.542Z" style="fill-rule:nonzero;"/>
            <path d="M48.719,58.734C48.365,58.734 48.075,58.571 47.851,58.244C47.627,57.918 47.515,57.511 47.515,57.023C47.515,56.433 47.554,55.892 47.633,55.4C47.712,54.909 47.841,54.387 48.022,53.837C48.101,53.601 48.211,53.432 48.353,53.329C48.494,53.227 48.719,53.176 49.025,53.176C49.198,53.176 49.318,53.204 49.385,53.259C49.452,53.314 49.486,53.396 49.486,53.506C49.486,53.569 49.442,53.782 49.356,54.144C49.277,54.435 49.214,54.698 49.167,54.934C49.01,55.76 48.931,56.311 48.931,56.586C48.931,56.751 48.951,56.867 48.99,56.934C49.029,57.001 49.092,57.035 49.179,57.035C49.297,57.035 49.444,56.917 49.621,56.681C49.798,56.445 49.987,56.087 50.188,55.607C50.388,55.127 50.583,54.537 50.772,53.837C50.835,53.601 50.931,53.432 51.061,53.329C51.191,53.227 51.385,53.176 51.645,53.176C51.826,53.176 51.952,53.198 52.023,53.241C52.093,53.284 52.129,53.365 52.129,53.483C52.129,53.679 52.03,54.218 51.834,55.099C51.614,56.106 51.503,56.728 51.503,56.964C51.503,57.113 51.535,57.229 51.598,57.312C51.661,57.395 51.743,57.436 51.846,57.436C52.003,57.436 52.19,57.339 52.406,57.147C52.622,56.954 52.912,56.641 53.273,56.209C53.368,56.098 53.474,56.043 53.592,56.043C53.694,56.043 53.775,56.091 53.834,56.185C53.893,56.279 53.922,56.409 53.922,56.574C53.922,56.889 53.848,57.133 53.698,57.306C53.36,57.723 52.996,58.065 52.607,58.333C52.217,58.6 51.775,58.734 51.279,58.734C50.902,58.734 50.624,58.588 50.447,58.297C50.27,58.006 50.182,57.597 50.182,57.07C50.048,57.605 49.847,58.016 49.58,58.303C49.313,58.59 49.025,58.734 48.719,58.734Z" style="fill-rule:nonzero;"/>
            <path d="M58.229,56.043C58.332,56.043 58.412,56.091 58.471,56.185C58.53,56.279 58.56,56.409 58.56,56.574C58.56,56.889 58.485,57.133 58.336,57.306C58.045,57.66 57.633,57.986 57.102,58.285C56.571,58.584 56.003,58.734 55.397,58.734C54.571,58.734 53.93,58.51 53.474,58.061C53.018,57.613 52.79,56.999 52.79,56.22C52.79,55.678 52.904,55.172 53.132,54.704C53.36,54.236 53.677,53.864 54.082,53.589C54.487,53.314 54.945,53.176 55.456,53.176C55.913,53.176 56.278,53.312 56.554,53.583C56.829,53.855 56.967,54.222 56.967,54.686C56.967,55.229 56.772,55.695 56.383,56.085C55.993,56.474 55.334,56.783 54.406,57.011C54.603,57.373 54.977,57.554 55.527,57.554C55.881,57.554 56.284,57.43 56.737,57.182C57.189,56.934 57.58,56.61 57.911,56.209C58.005,56.098 58.111,56.043 58.229,56.043ZM55.256,54.332C54.965,54.332 54.719,54.502 54.518,54.84C54.318,55.178 54.217,55.587 54.217,56.067L54.217,56.091C54.682,55.98 55.047,55.815 55.315,55.595C55.582,55.375 55.716,55.119 55.716,54.828C55.716,54.679 55.675,54.559 55.592,54.468C55.509,54.378 55.397,54.332 55.256,54.332Z" style="fill-rule:nonzero;"/>
            <path d="M62.371,54.793C62.544,54.793 62.692,54.854 62.814,54.976C62.936,55.097 62.997,55.249 62.997,55.43C62.997,55.532 62.973,55.642 62.926,55.76C62.8,56.051 62.623,56.295 62.395,56.492C62.167,56.688 61.915,56.787 61.64,56.787C61.419,56.787 61.232,56.708 61.079,56.551C60.926,56.393 60.849,56.181 60.849,55.914C60.849,55.764 60.857,55.603 60.873,55.43C60.888,55.304 60.896,55.217 60.896,55.17C60.896,55.107 60.882,55.06 60.855,55.029C60.827,54.997 60.794,54.981 60.755,54.981C60.644,54.981 60.495,55.113 60.306,55.377C60.117,55.64 59.929,55.988 59.74,56.421C59.551,56.854 59.398,57.31 59.28,57.79C59.193,58.167 59.095,58.419 58.985,58.545C58.874,58.671 58.694,58.734 58.442,58.734C58.143,58.734 57.932,58.576 57.81,58.262C57.689,57.947 57.628,57.444 57.628,56.751C57.628,55.729 57.773,54.757 58.064,53.837C58.135,53.609 58.251,53.442 58.412,53.335C58.574,53.229 58.8,53.176 59.091,53.176C59.248,53.176 59.358,53.196 59.421,53.235C59.484,53.274 59.516,53.349 59.516,53.459C59.516,53.585 59.457,53.868 59.339,54.309C59.26,54.623 59.197,54.899 59.15,55.135C59.103,55.371 59.063,55.662 59.032,56.008C59.291,55.331 59.582,54.781 59.905,54.356C60.228,53.931 60.542,53.628 60.849,53.447C61.156,53.266 61.435,53.176 61.687,53.176C61.915,53.176 62.09,53.241 62.212,53.371C62.334,53.501 62.395,53.691 62.395,53.943C62.395,54.092 62.352,54.376 62.265,54.793L62.371,54.793Z" style="fill-rule:nonzero;"/>
            <path d="M68.118,52.397C67.787,52.397 67.54,52.321 67.374,52.167C67.209,52.014 67.127,51.799 67.127,51.524C67.127,51.249 67.235,51.019 67.451,50.834C67.667,50.649 67.937,50.556 68.259,50.556C68.55,50.556 68.786,50.627 68.967,50.769C69.148,50.91 69.239,51.111 69.239,51.371C69.239,51.685 69.137,51.935 68.932,52.12C68.727,52.305 68.456,52.397 68.118,52.397ZM68.023,58.734C67.512,58.734 67.14,58.553 66.908,58.191C66.676,57.829 66.56,57.349 66.56,56.751C66.56,56.397 66.605,55.943 66.696,55.389C66.786,54.834 66.902,54.317 67.044,53.837C67.115,53.585 67.209,53.412 67.327,53.318C67.445,53.223 67.634,53.176 67.894,53.176C68.295,53.176 68.495,53.31 68.495,53.577C68.495,53.774 68.421,54.23 68.271,54.946C68.082,55.811 67.988,56.397 67.988,56.704C67.988,56.94 68.019,57.121 68.082,57.247C68.145,57.373 68.252,57.436 68.401,57.436C68.543,57.436 68.72,57.337 68.932,57.141C69.144,56.944 69.428,56.633 69.782,56.209C69.876,56.098 69.982,56.043 70.1,56.043C70.202,56.043 70.283,56.091 70.342,56.185C70.401,56.279 70.431,56.409 70.431,56.574C70.431,56.889 70.356,57.133 70.206,57.306C69.428,58.258 68.7,58.734 68.023,58.734Z" style="fill-rule:nonzero;"/>
            <path d="M71.729,58.734C70.958,58.734 70.358,58.516 69.929,58.079C69.5,57.642 69.286,57.066 69.286,56.35C69.286,55.713 69.412,55.154 69.664,54.675C69.915,54.195 70.242,53.825 70.643,53.565C71.044,53.306 71.465,53.176 71.906,53.176C72.338,53.176 72.675,53.304 72.914,53.56C73.154,53.815 73.274,54.144 73.274,54.545C73.274,54.875 73.202,55.154 73.056,55.383C72.911,55.611 72.72,55.725 72.484,55.725C72.334,55.725 72.214,55.689 72.124,55.619C72.033,55.548 71.988,55.449 71.988,55.324C71.988,55.269 71.996,55.206 72.012,55.135C72.028,55.064 72.039,55.013 72.047,54.981C72.087,54.863 72.106,54.753 72.106,54.651C72.106,54.549 72.081,54.47 72.029,54.415C71.978,54.36 71.906,54.332 71.811,54.332C71.63,54.332 71.461,54.413 71.304,54.574C71.146,54.736 71.021,54.954 70.926,55.229C70.832,55.505 70.785,55.807 70.785,56.138C70.785,57.05 71.182,57.507 71.976,57.507C72.299,57.507 72.647,57.398 73.021,57.182C73.394,56.966 73.762,56.641 74.124,56.209C74.218,56.098 74.325,56.043 74.443,56.043C74.545,56.043 74.625,56.091 74.684,56.185C74.743,56.279 74.773,56.409 74.773,56.574C74.773,56.873 74.698,57.117 74.549,57.306C74.179,57.762 73.737,58.114 73.221,58.362C72.706,58.61 72.208,58.734 71.729,58.734Z" style="fill-rule:nonzero;"/>
            <path d="M75.446,52.397C75.115,52.397 74.867,52.321 74.702,52.167C74.537,52.014 74.454,51.799 74.454,51.524C74.454,51.249 74.563,51.019 74.779,50.834C74.995,50.649 75.265,50.556 75.587,50.556C75.878,50.556 76.114,50.627 76.295,50.769C76.476,50.91 76.567,51.111 76.567,51.371C76.567,51.685 76.464,51.935 76.26,52.12C76.055,52.305 75.784,52.397 75.446,52.397ZM74.313,58.734C74.061,58.734 73.888,58.683 73.794,58.58C73.699,58.478 73.652,58.317 73.652,58.097C73.652,58.034 73.66,57.924 73.676,57.766C73.801,56.327 74.01,55.017 74.301,53.837C74.364,53.593 74.468,53.422 74.614,53.324C74.759,53.225 74.993,53.176 75.316,53.176C75.654,53.176 75.823,53.314 75.823,53.589C75.823,53.628 75.815,53.703 75.8,53.813C75.446,55.497 75.233,56.909 75.162,58.049C75.147,58.301 75.072,58.478 74.938,58.58C74.804,58.683 74.596,58.734 74.313,58.734Z" style="fill-rule:nonzero;"/>
            <path d="M27.119,70.043C27.221,70.043 27.302,70.091 27.361,70.185C27.42,70.279 27.449,70.409 27.449,70.574C27.449,70.889 27.374,71.133 27.225,71.306C26.887,71.723 26.523,72.065 26.133,72.333C25.744,72.6 25.301,72.734 24.806,72.734C24.389,72.734 24.051,72.584 23.791,72.285C23.343,72.576 22.875,72.726 22.387,72.734C22.285,74.252 22.053,75.521 21.691,76.539C21.329,77.558 20.798,78.067 20.098,78.067C19.673,78.067 19.358,77.914 19.154,77.607C18.949,77.3 18.847,76.876 18.847,76.333C18.847,75.562 19.024,74.663 19.378,73.637C19.732,72.61 20.279,71.479 21.018,70.244C21.018,69.095 21.01,68.297 20.994,67.849C20.987,67.62 21.077,67.44 21.266,67.306C21.455,67.172 21.691,67.105 21.974,67.105C22.139,67.105 22.259,67.139 22.334,67.206C22.409,67.272 22.45,67.404 22.458,67.601C22.458,67.797 22.462,67.943 22.469,68.037C22.721,67.723 22.969,67.497 23.213,67.359C23.457,67.221 23.716,67.152 23.992,67.152C24.432,67.152 24.792,67.329 25.071,67.683C25.351,68.037 25.49,68.502 25.49,69.076C25.49,69.493 25.423,69.898 25.29,70.291C25.156,70.685 24.971,71.042 24.735,71.365C24.9,71.412 25.038,71.436 25.148,71.436C25.408,71.436 25.655,71.341 25.891,71.153C26.127,70.964 26.43,70.649 26.8,70.209C26.894,70.098 27.001,70.043 27.119,70.043ZM22.446,71.601C22.729,71.538 22.991,71.383 23.231,71.135C23.471,70.887 23.661,70.58 23.803,70.215C23.944,69.849 24.015,69.465 24.015,69.064C24.015,68.828 23.968,68.649 23.874,68.527C23.779,68.405 23.653,68.344 23.496,68.344C23.213,68.344 22.871,68.643 22.469,69.241C22.462,69.587 22.458,70.095 22.458,70.763C22.458,71.125 22.454,71.404 22.446,71.601ZM20.192,76.911C20.404,76.911 20.581,76.449 20.723,75.525C20.865,74.6 20.955,73.45 20.994,72.073C20.656,72.86 20.389,73.611 20.192,74.327C19.995,75.043 19.897,75.644 19.897,76.132C19.897,76.384 19.927,76.577 19.986,76.71C20.045,76.844 20.113,76.911 20.192,76.911Z" style="fill-rule:nonzero;"/>
            <path d="M32.511,69.052C32.614,69.052 32.692,69.103 32.747,69.206C32.802,69.308 32.83,69.438 32.83,69.595C32.83,69.973 32.716,70.197 32.488,70.268C32.016,70.433 31.496,70.527 30.93,70.551C30.781,71.212 30.486,71.741 30.045,72.138C29.605,72.535 29.105,72.734 28.546,72.734C28.074,72.734 27.671,72.62 27.337,72.392C27.003,72.163 26.749,71.861 26.576,71.483C26.403,71.105 26.316,70.696 26.316,70.256C26.316,69.658 26.43,69.125 26.658,68.657C26.887,68.189 27.201,67.823 27.602,67.56C28.004,67.296 28.448,67.164 28.936,67.164C29.534,67.164 30.016,67.371 30.381,67.784C30.747,68.197 30.962,68.706 31.024,69.312C31.394,69.288 31.835,69.21 32.346,69.076C32.409,69.06 32.464,69.052 32.511,69.052ZM28.641,71.483C28.893,71.483 29.111,71.381 29.296,71.176C29.481,70.972 29.605,70.677 29.667,70.291C29.424,70.126 29.237,69.91 29.107,69.642C28.977,69.375 28.912,69.092 28.912,68.793C28.912,68.667 28.924,68.541 28.948,68.415L28.889,68.415C28.574,68.415 28.312,68.566 28.104,68.869C27.896,69.172 27.791,69.599 27.791,70.15C27.791,70.582 27.876,70.913 28.045,71.141C28.214,71.369 28.413,71.483 28.641,71.483Z" style="fill-rule:nonzero;"/>
            <path d="M33.019,72.734C32.665,72.734 32.376,72.571 32.151,72.244C31.927,71.918 31.815,71.511 31.815,71.023C31.815,70.433 31.854,69.892 31.933,69.4C32.012,68.909 32.142,68.387 32.322,67.837C32.401,67.601 32.511,67.432 32.653,67.329C32.794,67.227 33.019,67.176 33.325,67.176C33.499,67.176 33.619,67.204 33.685,67.259C33.752,67.314 33.786,67.396 33.786,67.506C33.786,67.569 33.742,67.782 33.656,68.144C33.577,68.435 33.514,68.698 33.467,68.934C33.31,69.76 33.231,70.311 33.231,70.586C33.231,70.751 33.251,70.867 33.29,70.934C33.329,71.001 33.392,71.035 33.479,71.035C33.597,71.035 33.744,70.917 33.921,70.681C34.098,70.445 34.287,70.087 34.488,69.607C34.688,69.127 34.883,68.537 35.072,67.837C35.135,67.601 35.231,67.432 35.361,67.329C35.491,67.227 35.685,67.176 35.945,67.176C36.126,67.176 36.252,67.198 36.323,67.241C36.393,67.284 36.429,67.365 36.429,67.483C36.429,67.679 36.331,68.218 36.134,69.099C35.914,70.106 35.803,70.728 35.803,70.964C35.803,71.113 35.835,71.229 35.898,71.312C35.961,71.395 36.043,71.436 36.146,71.436C36.303,71.436 36.49,71.339 36.706,71.147C36.923,70.954 37.212,70.641 37.573,70.209C37.668,70.098 37.774,70.043 37.892,70.043C37.994,70.043 38.075,70.091 38.134,70.185C38.193,70.279 38.222,70.409 38.222,70.574C38.222,70.889 38.148,71.133 37.998,71.306C37.66,71.723 37.296,72.065 36.907,72.333C36.517,72.6 36.075,72.734 35.579,72.734C35.202,72.734 34.924,72.588 34.747,72.297C34.57,72.006 34.482,71.597 34.482,71.07C34.348,71.605 34.148,72.016 33.88,72.303C33.613,72.59 33.325,72.734 33.019,72.734Z" style="fill-rule:nonzero;"/>
            <path d="M42.034,68.793C42.207,68.793 42.354,68.854 42.476,68.976C42.598,69.097 42.659,69.249 42.659,69.43C42.659,69.532 42.636,69.642 42.588,69.76C42.463,70.051 42.286,70.295 42.057,70.492C41.829,70.688 41.578,70.787 41.302,70.787C41.082,70.787 40.895,70.708 40.742,70.551C40.588,70.393 40.512,70.181 40.512,69.914C40.512,69.764 40.52,69.603 40.535,69.43C40.551,69.304 40.559,69.217 40.559,69.17C40.559,69.107 40.545,69.06 40.518,69.029C40.49,68.997 40.457,68.981 40.417,68.981C40.307,68.981 40.158,69.113 39.969,69.377C39.78,69.64 39.591,69.988 39.402,70.421C39.214,70.854 39.06,71.31 38.942,71.79C38.856,72.167 38.757,72.419 38.647,72.545C38.537,72.671 38.356,72.734 38.104,72.734C37.806,72.734 37.595,72.576 37.473,72.262C37.351,71.947 37.29,71.444 37.29,70.751C37.29,69.729 37.436,68.757 37.727,67.837C37.798,67.609 37.914,67.442 38.075,67.335C38.236,67.229 38.462,67.176 38.753,67.176C38.911,67.176 39.021,67.196 39.084,67.235C39.147,67.274 39.178,67.349 39.178,67.459C39.178,67.585 39.119,67.868 39.001,68.309C38.923,68.623 38.86,68.899 38.812,69.135C38.765,69.371 38.726,69.662 38.694,70.008C38.954,69.331 39.245,68.781 39.568,68.356C39.89,67.931 40.205,67.628 40.512,67.447C40.818,67.266 41.098,67.176 41.349,67.176C41.578,67.176 41.753,67.241 41.875,67.371C41.997,67.501 42.057,67.691 42.057,67.943C42.057,68.092 42.014,68.376 41.928,68.793L42.034,68.793Z" style="fill-rule:nonzero;"/>
            <path d="M52.076,69.088C52.099,69.08 52.139,69.076 52.194,69.076C52.312,69.076 52.402,69.115 52.465,69.194C52.528,69.272 52.559,69.379 52.559,69.512C52.559,69.756 52.512,69.947 52.418,70.085C52.323,70.222 52.182,70.323 51.993,70.386C51.631,70.504 51.246,70.563 50.837,70.563C50.491,70.563 50.164,70.515 49.857,70.421C49.629,70.791 49.377,71.172 49.102,71.566C48.787,72.014 48.516,72.321 48.288,72.486C48.06,72.651 47.8,72.734 47.509,72.734C47.187,72.734 46.933,72.608 46.748,72.356C46.563,72.104 46.447,71.707 46.4,71.164C46.305,70.063 46.258,69.099 46.258,68.273L46.258,67.86C46.266,67.601 46.337,67.42 46.471,67.318C46.604,67.215 46.805,67.164 47.072,67.164C47.277,67.164 47.428,67.209 47.527,67.3C47.625,67.39 47.674,67.542 47.674,67.754C47.674,68.659 47.729,69.835 47.839,71.282C48.311,70.582 48.665,70.024 48.901,69.607C48.783,69.379 48.724,69.107 48.724,68.793C48.724,68.525 48.783,68.266 48.901,68.014C49.019,67.762 49.181,67.558 49.385,67.4C49.59,67.243 49.822,67.164 50.081,67.164C50.31,67.164 50.494,67.245 50.636,67.406C50.778,67.567 50.848,67.801 50.848,68.108C50.848,68.462 50.754,68.867 50.565,69.324C50.864,69.308 51.261,69.249 51.757,69.147L52.076,69.088Z" style="fill:rgb(38,186,49);fill-rule:nonzero;"/>
            <path d="M56.796,70.043C56.898,70.043 56.979,70.091 57.038,70.185C57.097,70.279 57.126,70.409 57.126,70.574C57.126,70.889 57.051,71.133 56.902,71.306C56.611,71.66 56.2,71.986 55.669,72.285C55.138,72.584 54.569,72.734 53.964,72.734C53.138,72.734 52.497,72.51 52.04,72.061C51.584,71.613 51.356,70.999 51.356,70.22C51.356,69.678 51.47,69.172 51.698,68.704C51.926,68.236 52.243,67.864 52.648,67.589C53.053,67.314 53.511,67.176 54.023,67.176C54.479,67.176 54.845,67.312 55.12,67.583C55.395,67.855 55.533,68.222 55.533,68.686C55.533,69.229 55.338,69.695 54.949,70.085C54.56,70.474 53.901,70.783 52.972,71.011C53.169,71.373 53.543,71.554 54.093,71.554C54.447,71.554 54.851,71.43 55.303,71.182C55.755,70.934 56.147,70.61 56.477,70.209C56.571,70.098 56.678,70.043 56.796,70.043ZM53.822,68.332C53.531,68.332 53.285,68.502 53.085,68.84C52.884,69.178 52.784,69.587 52.784,70.067L52.784,70.091C53.248,69.98 53.614,69.815 53.881,69.595C54.149,69.375 54.282,69.119 54.282,68.828C54.282,68.679 54.241,68.559 54.158,68.468C54.076,68.378 53.964,68.332 53.822,68.332ZM54.129,66.397C54.019,66.397 53.922,66.356 53.84,66.273C53.757,66.191 53.716,66.09 53.716,65.972C53.716,65.917 53.736,65.843 53.775,65.748L54.872,63.294C54.943,63.136 55.036,63.02 55.15,62.946C55.264,62.871 55.391,62.834 55.533,62.834C55.73,62.834 55.905,62.904 56.058,63.046C56.212,63.188 56.288,63.365 56.288,63.577C56.288,63.797 56.202,64.018 56.029,64.238L54.506,66.197C54.404,66.33 54.278,66.397 54.129,66.397Z" style="fill:rgb(38,186,49);fill-rule:nonzero;"/>
            <path d="M57.008,72.734C56.709,72.734 56.499,72.576 56.377,72.262C56.255,71.947 56.194,71.444 56.194,70.751C56.194,69.729 56.339,68.757 56.63,67.837C56.701,67.609 56.817,67.442 56.979,67.335C57.14,67.229 57.366,67.176 57.657,67.176C57.814,67.176 57.925,67.196 57.987,67.235C58.05,67.274 58.082,67.349 58.082,67.459C58.082,67.585 58.023,67.868 57.905,68.309C57.826,68.623 57.763,68.899 57.716,69.135C57.669,69.371 57.63,69.662 57.598,70.008C57.858,69.331 58.149,68.781 58.471,68.356C58.794,67.931 59.11,67.628 59.421,67.447C59.732,67.266 60.017,67.176 60.277,67.176C60.788,67.176 61.044,67.432 61.044,67.943C61.044,68.045 61.008,68.293 60.937,68.686C60.875,69.001 60.843,69.198 60.843,69.276C60.843,69.552 60.941,69.689 61.138,69.689C61.358,69.689 61.642,69.516 61.988,69.17C62.09,69.068 62.196,69.017 62.306,69.017C62.409,69.017 62.489,69.062 62.548,69.153C62.607,69.243 62.637,69.363 62.637,69.512C62.637,69.803 62.558,70.032 62.401,70.197C62.18,70.425 61.923,70.62 61.628,70.781C61.333,70.942 61.02,71.023 60.69,71.023C60.273,71.023 59.956,70.917 59.74,70.704C59.523,70.492 59.415,70.205 59.415,69.843C59.415,69.725 59.427,69.607 59.451,69.489C59.466,69.331 59.474,69.225 59.474,69.17C59.474,69.044 59.431,68.981 59.344,68.981C59.226,68.981 59.071,69.113 58.878,69.377C58.686,69.64 58.495,69.988 58.306,70.421C58.117,70.854 57.964,71.31 57.846,71.79C57.759,72.16 57.659,72.409 57.545,72.539C57.431,72.669 57.252,72.734 57.008,72.734Z" style="fill:rgb(38,186,49);fill-rule:nonzero;"/>
            <path d="M63.085,66.397C62.755,66.397 62.507,66.321 62.342,66.167C62.176,66.014 62.094,65.799 62.094,65.524C62.094,65.249 62.202,65.019 62.418,64.834C62.635,64.649 62.904,64.556 63.227,64.556C63.518,64.556 63.754,64.627 63.935,64.769C64.116,64.91 64.206,65.111 64.206,65.371C64.206,65.685 64.104,65.935 63.899,66.12C63.695,66.305 63.423,66.397 63.085,66.397ZM62.991,72.734C62.479,72.734 62.108,72.553 61.876,72.191C61.644,71.829 61.527,71.349 61.527,70.751C61.527,70.397 61.573,69.943 61.663,69.389C61.754,68.834 61.87,68.317 62.011,67.837C62.082,67.585 62.176,67.412 62.294,67.318C62.412,67.223 62.601,67.176 62.861,67.176C63.262,67.176 63.463,67.31 63.463,67.577C63.463,67.774 63.388,68.23 63.238,68.946C63.05,69.811 62.955,70.397 62.955,70.704C62.955,70.94 62.987,71.121 63.05,71.247C63.113,71.373 63.219,71.436 63.368,71.436C63.51,71.436 63.687,71.337 63.899,71.141C64.112,70.944 64.395,70.633 64.749,70.209C64.843,70.098 64.949,70.043 65.067,70.043C65.17,70.043 65.25,70.091 65.309,70.185C65.368,70.279 65.398,70.409 65.398,70.574C65.398,70.889 65.323,71.133 65.174,71.306C64.395,72.258 63.667,72.734 62.991,72.734Z" style="fill:rgb(38,186,49);fill-rule:nonzero;"/>
            <path d="M72.537,70.043C72.639,70.043 72.72,70.091 72.779,70.185C72.838,70.279 72.867,70.409 72.867,70.574C72.867,70.889 72.793,71.133 72.643,71.306C72.321,71.699 71.965,72.036 71.575,72.315C71.186,72.594 70.794,72.734 70.401,72.734C69.89,72.734 69.518,72.553 69.286,72.191C69.054,71.829 68.938,71.349 68.938,70.751C68.938,70.445 68.971,70.067 69.038,69.619C69.105,69.17 69.194,68.73 69.304,68.297C68.517,68.297 67.585,68.332 66.507,68.403C66.334,69.505 66.247,70.531 66.247,71.483C66.247,72.215 66.289,72.98 66.371,73.778C66.454,74.577 66.578,74.976 66.743,74.976C66.822,74.976 66.904,74.838 66.991,74.563C67.077,74.287 67.148,73.91 67.203,73.43C67.258,72.95 67.286,72.419 67.286,71.837C67.286,71.2 67.25,70.511 67.18,69.772C67.164,69.552 67.201,69.389 67.292,69.282C67.382,69.176 67.518,69.123 67.699,69.123C67.864,69.123 67.986,69.166 68.065,69.253C68.143,69.339 68.191,69.485 68.206,69.689C68.246,70.264 68.265,70.948 68.265,71.743C68.265,73.025 68.11,74.122 67.799,75.035C67.488,75.947 67.007,76.404 66.354,76.404C65.795,76.404 65.394,76 65.15,75.194C64.906,74.388 64.784,73.178 64.784,71.566C64.784,70.614 64.859,69.595 65.008,68.509C64.953,68.517 64.883,68.521 64.796,68.521C64.552,68.521 64.389,68.478 64.306,68.391C64.224,68.305 64.182,68.171 64.182,67.99C64.182,67.794 64.236,67.636 64.342,67.518C64.448,67.4 64.651,67.329 64.949,67.306C65.005,67.298 65.091,67.294 65.209,67.294C65.421,66.232 65.693,65.268 66.023,64.403C66.354,63.538 66.731,62.851 67.156,62.344C67.581,61.837 68.029,61.583 68.501,61.583C68.871,61.583 69.156,61.726 69.357,62.014C69.557,62.301 69.658,62.668 69.658,63.117C69.658,64.698 69.02,66.043 67.746,67.152C68.706,67.113 69.481,67.093 70.071,67.093C70.291,67.093 70.472,67.135 70.613,67.217C70.755,67.3 70.826,67.459 70.826,67.695C70.826,67.853 70.8,68.092 70.749,68.415C70.698,68.738 70.641,69.06 70.578,69.383C70.436,70.051 70.366,70.492 70.366,70.704C70.366,70.94 70.397,71.121 70.46,71.247C70.523,71.373 70.629,71.436 70.779,71.436C70.912,71.436 71.084,71.343 71.292,71.159C71.5,70.974 71.809,70.657 72.218,70.209C72.313,70.098 72.419,70.043 72.537,70.043ZM68.277,62.716C68.088,62.716 67.848,63.125 67.557,63.943C67.266,64.761 67.003,65.752 66.767,66.916C67.16,66.641 67.488,66.299 67.752,65.89C68.016,65.481 68.212,65.058 68.342,64.621C68.472,64.185 68.537,63.782 68.537,63.412C68.537,62.948 68.45,62.716 68.277,62.716ZM70.566,66.397C70.236,66.397 69.988,66.321 69.823,66.167C69.658,66.014 69.575,65.799 69.575,65.524C69.575,65.249 69.683,65.019 69.9,64.834C70.116,64.649 70.385,64.556 70.708,64.556C70.999,64.556 71.235,64.627 71.416,64.769C71.597,64.91 71.687,65.111 71.687,65.371C71.687,65.685 71.585,65.935 71.38,66.12C71.176,66.305 70.905,66.397 70.566,66.397Z" style="fill:rgb(38,186,49);fill-rule:nonzero;"/>
            <path d="M77.174,70.043C77.277,70.043 77.357,70.091 77.416,70.185C77.475,70.279 77.505,70.409 77.505,70.574C77.505,70.889 77.43,71.133 77.28,71.306C76.989,71.66 76.578,71.986 76.047,72.285C75.516,72.584 74.948,72.734 74.342,72.734C73.516,72.734 72.875,72.51 72.419,72.061C71.963,71.613 71.734,70.999 71.734,70.22C71.734,69.678 71.849,69.172 72.077,68.704C72.305,68.236 72.621,67.864 73.027,67.589C73.432,67.314 73.89,67.176 74.401,67.176C74.858,67.176 75.223,67.312 75.499,67.583C75.774,67.855 75.912,68.222 75.912,68.686C75.912,69.229 75.717,69.695 75.328,70.085C74.938,70.474 74.279,70.783 73.351,71.011C73.548,71.373 73.921,71.554 74.472,71.554C74.826,71.554 75.229,71.43 75.682,71.182C76.134,70.934 76.525,70.61 76.856,70.209C76.95,70.098 77.056,70.043 77.174,70.043ZM74.201,68.332C73.91,68.332 73.664,68.502 73.463,68.84C73.263,69.178 73.162,69.587 73.162,70.067L73.162,70.091C73.626,69.98 73.992,69.815 74.26,69.595C74.527,69.375 74.661,69.119 74.661,68.828C74.661,68.679 74.62,68.559 74.537,68.468C74.454,68.378 74.342,68.332 74.201,68.332Z" style="fill:rgb(38,186,49);fill-rule:nonzero;"/>
            <path d="M81.316,68.793C81.489,68.793 81.637,68.854 81.759,68.976C81.881,69.097 81.941,69.249 81.941,69.43C81.941,69.532 81.918,69.642 81.871,69.76C81.745,70.051 81.568,70.295 81.34,70.492C81.112,70.688 80.86,70.787 80.584,70.787C80.364,70.787 80.177,70.708 80.024,70.551C79.871,70.393 79.794,70.181 79.794,69.914C79.794,69.764 79.802,69.603 79.817,69.43C79.833,69.304 79.841,69.217 79.841,69.17C79.841,69.107 79.827,69.06 79.8,69.029C79.772,68.997 79.739,68.981 79.699,68.981C79.589,68.981 79.44,69.113 79.251,69.377C79.062,69.64 78.873,69.988 78.685,70.421C78.496,70.854 78.342,71.31 78.224,71.79C78.138,72.167 78.04,72.419 77.929,72.545C77.819,72.671 77.638,72.734 77.387,72.734C77.088,72.734 76.877,72.576 76.755,72.262C76.633,71.947 76.572,71.444 76.572,70.751C76.572,69.729 76.718,68.757 77.009,67.837C77.08,67.609 77.196,67.442 77.357,67.335C77.518,67.229 77.745,67.176 78.036,67.176C78.193,67.176 78.303,67.196 78.366,67.235C78.429,67.274 78.46,67.349 78.46,67.459C78.46,67.585 78.401,67.868 78.283,68.309C78.205,68.623 78.142,68.899 78.095,69.135C78.047,69.371 78.008,69.662 77.977,70.008C78.236,69.331 78.527,68.781 78.85,68.356C79.172,67.931 79.487,67.628 79.794,67.447C80.101,67.266 80.38,67.176 80.632,67.176C80.86,67.176 81.035,67.241 81.157,67.371C81.279,67.501 81.34,67.691 81.34,67.943C81.34,68.092 81.296,68.376 81.21,68.793L81.316,68.793Z" style="fill:rgb(38,186,49);fill-rule:nonzero;"/>
            <rect x="45.668" y="73.56" width="36.155" height="0.59" style="fill:rgb(38,186,49);fill-rule:nonzero;"/>
        </g>
        <g transform="matrix(0.00442255,-0.0206618,-0.0322485,-0.00690263,-11.9483,74.3131)">
            <path d="M3128.36,353.559C3122.77,354.613 3118.89,357.492 3114.79,359.695C3020.61,410.469 2922.06,449.754 2817.41,472.953C2656.47,508.617 2500.16,492.289 2348.84,428.629C2287.94,403.004 2233.82,365.754 2186.74,319.297C2152.76,285.766 2128.08,246.051 2117.39,198.77C2115.38,189.871 2113.99,180.746 2116.28,171.602C2117.42,167.004 2119.27,162.75 2124.47,161.586C2129.82,160.398 2132.92,163.777 2135.72,167.672C2144.46,179.836 2153.83,191.594 2161.96,204.148C2200.58,263.754 2253.73,306.68 2315.89,339.43C2395.52,381.387 2480.76,403.172 2570.02,411.375C2686.31,422.063 2798.25,402.801 2907.72,364.629C2963.95,345.023 3019,322.875 3070.84,293.316C3073.48,291.813 3076.02,290.129 3078.56,288.461C3078.87,288.258 3078.86,287.578 3079.04,286.969C3076.27,285.063 3073.18,286.148 3070.3,286.203C3017.96,287.203 2965.66,287.297 2913.62,280.348C2899.97,278.527 2886.68,275.23 2873.97,269.832C2868.1,267.336 2862.53,264.281 2857.95,259.754C2847.96,249.859 2850.52,238.836 2864.06,235.125C2885.94,229.133 2908.34,226.02 2930.99,225.219C2976.67,223.605 3022.38,222.457 3068.06,220.801C3123.75,218.773 3178.9,211.91 3233.59,201.258C3236.32,200.727 3239.09,200.211 3241.86,199.93C3266.97,197.371 3285.14,216.672 3281.14,241.625C3279.79,250.02 3276.23,257.613 3272.36,265.063C3264.61,279.957 3255.68,294.148 3246.42,308.113C3226.49,338.172 3206.44,368.152 3186.3,398.066C3175.62,413.902 3163.43,428.523 3149.48,441.617C3139.43,451.043 3131.1,461.945 3122.48,472.613C3117.06,479.328 3111.64,486.066 3105.93,492.539C3099.28,500.063 3091.64,502.234 3084.25,499.219C3076.88,496.215 3072.16,488.188 3072.46,478.723C3072.73,470.184 3075.18,462.047 3079.32,454.746C3097.25,423.137 3106.82,387.426 3127.34,357.117C3127.83,356.391 3127.86,355.355 3128.36,353.559Z"/>
        </g>
    </g>
</svg>
