<?xml version="1.0" encoding="UTF-8" standalone="no"?>
<!DOCTYPE svg PUBLIC "-//W3C//DTD SVG 1.1//EN" "http://www.w3.org/Graphics/SVG/1.1/DTD/svg11.dtd">
<svg width="50%" height="50%" viewBox="0 0 82 82" version="1.1" xmlns="http://www.w3.org/2000/svg" xmlns:xlink="http://www.w3.org/1999/xlink" xml:space="preserve" xmlns:serif="http://www.serif.com/" style="fill-rule:evenodd;clip-rule:evenodd;stroke-linejoin:round;stroke-miterlimit:2;">
    <g transform="matrix(1,0,0,1,20,20)">
        <g transform="matrix(1,0,0,1,0,-10)">
            <g>
                <g transform="matrix(1,0,0,1,0,-10)">
                    <circle cx="21" cy="21" r="21" style="fill:rgb(94,25,106);"/>
                </g>
                <g transform="matrix(1,0,0,1,0,-10)">
                    <circle cx="21" cy="21" r="9" style="fill:rgb(252,90,0);"/>
                </g>
            </g>
        </g>
        <g transform="matrix(1,0,0,1,-29.3765,-22.3492)">
            <path d="M31.55,58.734C30.613,58.734 29.799,58.563 29.107,58.221C28.415,57.878 27.884,57.393 27.514,56.763C27.144,56.134 26.959,55.402 26.959,54.568C26.959,53.412 27.178,52.385 27.614,51.489C28.051,50.592 28.643,49.898 29.39,49.406C30.138,48.914 30.967,48.668 31.88,48.668C32.73,48.668 33.375,48.887 33.815,49.323C34.256,49.76 34.476,50.336 34.476,51.052C34.476,51.532 34.391,51.917 34.222,52.208C34.053,52.499 33.811,52.645 33.497,52.645C33.276,52.645 33.103,52.594 32.977,52.492C32.852,52.389 32.789,52.24 32.789,52.043C32.789,51.972 32.804,51.843 32.836,51.654C32.883,51.418 32.907,51.229 32.907,51.087C32.907,50.372 32.525,50.014 31.762,50.014C31.243,50.014 30.747,50.183 30.275,50.521C29.803,50.859 29.422,51.357 29.131,52.014C28.84,52.671 28.694,53.451 28.694,54.356C28.694,55.3 28.958,56.03 29.485,56.545C30.012,57.06 30.79,57.318 31.821,57.318C32.332,57.318 32.85,57.253 33.373,57.123C33.896,56.993 34.476,56.795 35.113,56.527C35.231,56.48 35.33,56.456 35.408,56.456C35.534,56.456 35.628,56.504 35.691,56.598C35.754,56.692 35.786,56.814 35.786,56.964C35.786,57.444 35.526,57.798 35.007,58.026C34.448,58.27 33.868,58.449 33.266,58.563C32.665,58.677 32.092,58.734 31.55,58.734Z" style="fill-rule:nonzero;"/>
            <path d="M39.338,56.043C39.44,56.043 39.52,56.091 39.579,56.185C39.638,56.279 39.668,56.409 39.668,56.574C39.668,56.889 39.593,57.133 39.444,57.306C39.106,57.723 38.738,58.065 38.34,58.333C37.943,58.6 37.493,58.734 36.989,58.734C36.297,58.734 35.784,58.419 35.449,57.79C35.115,57.16 34.948,56.346 34.948,55.347C34.948,54.387 35.072,53.294 35.32,52.067C35.567,50.84 35.933,49.785 36.417,48.904C36.901,48.023 37.477,47.583 38.146,47.583C38.523,47.583 38.82,47.758 39.037,48.108C39.253,48.458 39.361,48.959 39.361,49.612C39.361,50.549 39.102,51.634 38.582,52.869C38.063,54.104 37.359,55.328 36.47,56.539C36.525,56.862 36.616,57.092 36.742,57.229C36.867,57.367 37.033,57.436 37.237,57.436C37.56,57.436 37.843,57.343 38.087,57.159C38.331,56.974 38.641,56.657 39.019,56.209C39.113,56.098 39.22,56.043 39.338,56.043ZM37.886,48.751C37.705,48.751 37.501,49.077 37.273,49.73C37.044,50.383 36.844,51.194 36.671,52.161C36.498,53.129 36.403,54.057 36.388,54.946C36.946,54.026 37.391,53.103 37.721,52.179C38.051,51.255 38.217,50.411 38.217,49.648C38.217,49.05 38.106,48.751 37.886,48.751Z" style="fill-rule:nonzero;"/>
            <path d="M40.258,52.397C39.928,52.397 39.68,52.321 39.515,52.167C39.349,52.014 39.267,51.799 39.267,51.524C39.267,51.249 39.375,51.019 39.591,50.834C39.808,50.649 40.077,50.556 40.4,50.556C40.691,50.556 40.927,50.627 41.108,50.769C41.289,50.91 41.379,51.111 41.379,51.371C41.379,51.685 41.277,51.935 41.072,52.12C40.868,52.305 40.596,52.397 40.258,52.397ZM40.164,58.734C39.652,58.734 39.281,58.553 39.048,58.191C38.816,57.829 38.7,57.349 38.7,56.751C38.7,56.397 38.746,55.943 38.836,55.389C38.927,54.834 39.043,54.317 39.184,53.837C39.255,53.585 39.349,53.412 39.467,53.318C39.585,53.223 39.774,53.176 40.034,53.176C40.435,53.176 40.636,53.31 40.636,53.577C40.636,53.774 40.561,54.23 40.411,54.946C40.223,55.811 40.128,56.397 40.128,56.704C40.128,56.94 40.16,57.121 40.223,57.247C40.286,57.373 40.392,57.436 40.541,57.436C40.683,57.436 40.86,57.337 41.072,57.141C41.285,56.944 41.568,56.633 41.922,56.209C42.016,56.098 42.122,56.043 42.24,56.043C42.343,56.043 42.423,56.091 42.482,56.185C42.541,56.279 42.571,56.409 42.571,56.574C42.571,56.889 42.496,57.133 42.347,57.306C41.568,58.258 40.84,58.734 40.164,58.734Z" style="fill-rule:nonzero;"/>
            <path d="M48.235,56.409C48.416,56.409 48.506,56.531 48.506,56.775C48.506,57.082 48.437,57.322 48.3,57.495C48.162,57.668 47.975,57.754 47.739,57.754L47.303,57.743C47.224,57.735 47.11,57.731 46.96,57.731C46.992,58.179 47.008,58.628 47.008,59.076C47.008,60.264 46.852,61.298 46.541,62.179C46.231,63.06 45.745,63.501 45.084,63.501C44.636,63.501 44.296,63.243 44.063,62.728C43.831,62.213 43.715,61.585 43.715,60.846C43.715,59.926 43.818,59.017 44.022,58.12C43.755,58.529 43.405,58.734 42.972,58.734C42.539,58.734 42.179,58.553 41.892,58.191C41.605,57.829 41.462,57.361 41.462,56.787C41.462,56.165 41.609,55.575 41.904,55.017C42.199,54.458 42.592,54.008 43.084,53.666C43.576,53.324 44.101,53.152 44.659,53.152C44.848,53.152 44.994,53.215 45.096,53.341C45.167,53.089 45.273,52.92 45.415,52.834C45.556,52.747 45.753,52.704 46.005,52.704C46.272,52.704 46.451,52.743 46.541,52.822C46.632,52.901 46.673,53.015 46.665,53.164C46.665,53.259 46.616,53.477 46.518,53.819C46.42,54.161 46.355,54.387 46.323,54.498C46.197,54.938 46.062,55.426 45.916,55.961C45.771,56.496 45.655,56.983 45.568,57.424C45.316,58.683 45.19,59.796 45.19,60.763C45.19,61.125 45.22,61.434 45.279,61.69C45.338,61.945 45.415,62.073 45.509,62.073C45.588,62.073 45.672,61.939 45.763,61.672C45.853,61.405 45.93,61.047 45.993,60.598C46.056,60.15 46.087,59.674 46.087,59.17C46.087,58.573 46.06,58.042 46.005,57.577C45.997,57.538 45.993,57.475 45.993,57.389C45.993,57.129 46.058,56.913 46.187,56.74C46.317,56.567 46.5,56.48 46.736,56.48C46.768,56.48 47.067,56.468 47.633,56.445C47.869,56.421 48.07,56.409 48.235,56.409ZM43.444,57.542C43.625,57.542 43.798,57.43 43.963,57.206C44.128,56.982 44.246,56.712 44.317,56.397L44.825,54.25C44.478,54.258 44.162,54.38 43.875,54.616C43.588,54.852 43.359,55.164 43.19,55.554C43.021,55.943 42.937,56.354 42.937,56.787C42.937,57.031 42.982,57.218 43.072,57.347C43.163,57.477 43.287,57.542 43.444,57.542Z" style="fill-rule:nonzero;"/>
            <path d="M48.719,58.734C48.365,58.734 48.075,58.571 47.851,58.244C47.627,57.918 47.515,57.511 47.515,57.023C47.515,56.433 47.554,55.892 47.633,55.4C47.712,54.909 47.841,54.387 48.022,53.837C48.101,53.601 48.211,53.432 48.353,53.329C48.494,53.227 48.719,53.176 49.025,53.176C49.198,53.176 49.318,53.204 49.385,53.259C49.452,53.314 49.486,53.396 49.486,53.506C49.486,53.569 49.442,53.782 49.356,54.144C49.277,54.435 49.214,54.698 49.167,54.934C49.01,55.76 48.931,56.311 48.931,56.586C48.931,56.751 48.951,56.867 48.99,56.934C49.029,57.001 49.092,57.035 49.179,57.035C49.297,57.035 49.444,56.917 49.621,56.681C49.798,56.445 49.987,56.087 50.188,55.607C50.388,55.127 50.583,54.537 50.772,53.837C50.835,53.601 50.931,53.432 51.061,53.329C51.191,53.227 51.385,53.176 51.645,53.176C51.826,53.176 51.952,53.198 52.023,53.241C52.093,53.284 52.129,53.365 52.129,53.483C52.129,53.679 52.03,54.218 51.834,55.099C51.614,56.106 51.503,56.728 51.503,56.964C51.503,57.113 51.535,57.229 51.598,57.312C51.661,57.395 51.743,57.436 51.846,57.436C52.003,57.436 52.19,57.339 52.406,57.147C52.622,56.954 52.912,56.641 53.273,56.209C53.368,56.098 53.474,56.043 53.592,56.043C53.694,56.043 53.775,56.091 53.834,56.185C53.893,56.279 53.922,56.409 53.922,56.574C53.922,56.889 53.848,57.133 53.698,57.306C53.36,57.723 52.996,58.065 52.607,58.333C52.217,58.6 51.775,58.734 51.279,58.734C50.902,58.734 50.624,58.588 50.447,58.297C50.27,58.006 50.182,57.597 50.182,57.07C50.048,57.605 49.847,58.016 49.58,58.303C49.313,58.59 49.025,58.734 48.719,58.734Z" style="fill-rule:nonzero;"/>
            <path d="M58.229,56.043C58.332,56.043 58.412,56.091 58.471,56.185C58.53,56.279 58.56,56.409 58.56,56.574C58.56,56.889 58.485,57.133 58.336,57.306C58.045,57.66 57.633,57.986 57.102,58.285C56.571,58.584 56.003,58.734 55.397,58.734C54.571,58.734 53.93,58.51 53.474,58.061C53.018,57.613 52.79,56.999 52.79,56.22C52.79,55.678 52.904,55.172 53.132,54.704C53.36,54.236 53.677,53.864 54.082,53.589C54.487,53.314 54.945,53.176 55.456,53.176C55.913,53.176 56.278,53.312 56.554,53.583C56.829,53.855 56.967,54.222 56.967,54.686C56.967,55.229 56.772,55.695 56.383,56.085C55.993,56.474 55.334,56.783 54.406,57.011C54.603,57.373 54.977,57.554 55.527,57.554C55.881,57.554 56.284,57.43 56.737,57.182C57.189,56.934 57.58,56.61 57.911,56.209C58.005,56.098 58.111,56.043 58.229,56.043ZM55.256,54.332C54.965,54.332 54.719,54.502 54.518,54.84C54.318,55.178 54.217,55.587 54.217,56.067L54.217,56.091C54.682,55.98 55.047,55.815 55.315,55.595C55.582,55.375 55.716,55.119 55.716,54.828C55.716,54.679 55.675,54.559 55.592,54.468C55.509,54.378 55.397,54.332 55.256,54.332Z" style="fill-rule:nonzero;"/>
            <path d="M62.371,54.793C62.544,54.793 62.692,54.854 62.814,54.976C62.936,55.097 62.997,55.249 62.997,55.43C62.997,55.532 62.973,55.642 62.926,55.76C62.8,56.051 62.623,56.295 62.395,56.492C62.167,56.688 61.915,56.787 61.64,56.787C61.419,56.787 61.232,56.708 61.079,56.551C60.926,56.393 60.849,56.181 60.849,55.914C60.849,55.764 60.857,55.603 60.873,55.43C60.888,55.304 60.896,55.217 60.896,55.17C60.896,55.107 60.882,55.06 60.855,55.029C60.827,54.997 60.794,54.981 60.755,54.981C60.644,54.981 60.495,55.113 60.306,55.377C60.117,55.64 59.929,55.988 59.74,56.421C59.551,56.854 59.398,57.31 59.28,57.79C59.193,58.167 59.095,58.419 58.985,58.545C58.874,58.671 58.694,58.734 58.442,58.734C58.143,58.734 57.932,58.576 57.81,58.262C57.689,57.947 57.628,57.444 57.628,56.751C57.628,55.729 57.773,54.757 58.064,53.837C58.135,53.609 58.251,53.442 58.412,53.335C58.574,53.229 58.8,53.176 59.091,53.176C59.248,53.176 59.358,53.196 59.421,53.235C59.484,53.274 59.516,53.349 59.516,53.459C59.516,53.585 59.457,53.868 59.339,54.309C59.26,54.623 59.197,54.899 59.15,55.135C59.103,55.371 59.063,55.662 59.032,56.008C59.291,55.331 59.582,54.781 59.905,54.356C60.228,53.931 60.542,53.628 60.849,53.447C61.156,53.266 61.435,53.176 61.687,53.176C61.915,53.176 62.09,53.241 62.212,53.371C62.334,53.501 62.395,53.691 62.395,53.943C62.395,54.092 62.352,54.376 62.265,54.793L62.371,54.793Z" style="fill-rule:nonzero;"/>
            <path d="M68.118,52.397C67.787,52.397 67.54,52.321 67.374,52.167C67.209,52.014 67.127,51.799 67.127,51.524C67.127,51.249 67.235,51.019 67.451,50.834C67.667,50.649 67.937,50.556 68.259,50.556C68.55,50.556 68.786,50.627 68.967,50.769C69.148,50.91 69.239,51.111 69.239,51.371C69.239,51.685 69.137,51.935 68.932,52.12C68.727,52.305 68.456,52.397 68.118,52.397ZM68.023,58.734C67.512,58.734 67.14,58.553 66.908,58.191C66.676,57.829 66.56,57.349 66.56,56.751C66.56,56.397 66.605,55.943 66.696,55.389C66.786,54.834 66.902,54.317 67.044,53.837C67.115,53.585 67.209,53.412 67.327,53.318C67.445,53.223 67.634,53.176 67.894,53.176C68.295,53.176 68.495,53.31 68.495,53.577C68.495,53.774 68.421,54.23 68.271,54.946C68.082,55.811 67.988,56.397 67.988,56.704C67.988,56.94 68.019,57.121 68.082,57.247C68.145,57.373 68.252,57.436 68.401,57.436C68.543,57.436 68.72,57.337 68.932,57.141C69.144,56.944 69.428,56.633 69.782,56.209C69.876,56.098 69.982,56.043 70.1,56.043C70.202,56.043 70.283,56.091 70.342,56.185C70.401,56.279 70.431,56.409 70.431,56.574C70.431,56.889 70.356,57.133 70.206,57.306C69.428,58.258 68.7,58.734 68.023,58.734Z" style="fill-rule:nonzero;"/>
            <path d="M71.729,58.734C70.958,58.734 70.358,58.516 69.929,58.079C69.5,57.642 69.286,57.066 69.286,56.35C69.286,55.713 69.412,55.154 69.664,54.675C69.915,54.195 70.242,53.825 70.643,53.565C71.044,53.306 71.465,53.176 71.906,53.176C72.338,53.176 72.675,53.304 72.914,53.56C73.154,53.815 73.274,54.144 73.274,54.545C73.274,54.875 73.202,55.154 73.056,55.383C72.911,55.611 72.72,55.725 72.484,55.725C72.334,55.725 72.214,55.689 72.124,55.619C72.033,55.548 71.988,55.449 71.988,55.324C71.988,55.269 71.996,55.206 72.012,55.135C72.028,55.064 72.039,55.013 72.047,54.981C72.087,54.863 72.106,54.753 72.106,54.651C72.106,54.549 72.081,54.47 72.029,54.415C71.978,54.36 71.906,54.332 71.811,54.332C71.63,54.332 71.461,54.413 71.304,54.574C71.146,54.736 71.021,54.954 70.926,55.229C70.832,55.505 70.785,55.807 70.785,56.138C70.785,57.05 71.182,57.507 71.976,57.507C72.299,57.507 72.647,57.398 73.021,57.182C73.394,56.966 73.762,56.641 74.124,56.209C74.218,56.098 74.325,56.043 74.443,56.043C74.545,56.043 74.625,56.091 74.684,56.185C74.743,56.279 74.773,56.409 74.773,56.574C74.773,56.873 74.698,57.117 74.549,57.306C74.179,57.762 73.737,58.114 73.221,58.362C72.706,58.61 72.208,58.734 71.729,58.734Z" style="fill-rule:nonzero;"/>
            <path d="M75.446,52.397C75.115,52.397 74.867,52.321 74.702,52.167C74.537,52.014 74.454,51.799 74.454,51.524C74.454,51.249 74.563,51.019 74.779,50.834C74.995,50.649 75.265,50.556 75.587,50.556C75.878,50.556 76.114,50.627 76.295,50.769C76.476,50.91 76.567,51.111 76.567,51.371C76.567,51.685 76.464,51.935 76.26,52.12C76.055,52.305 75.784,52.397 75.446,52.397ZM74.313,58.734C74.061,58.734 73.888,58.683 73.794,58.58C73.699,58.478 73.652,58.317 73.652,58.097C73.652,58.034 73.66,57.924 73.676,57.766C73.801,56.327 74.01,55.017 74.301,53.837C74.364,53.593 74.468,53.422 74.614,53.324C74.759,53.225 74.993,53.176 75.316,53.176C75.654,53.176 75.823,53.314 75.823,53.589C75.823,53.628 75.815,53.703 75.8,53.813C75.446,55.497 75.233,56.909 75.162,58.049C75.147,58.301 75.072,58.478 74.938,58.58C74.804,58.683 74.596,58.734 74.313,58.734Z" style="fill-rule:nonzero;"/>
            <path d="M18.003,70.043C18.105,70.043 18.186,70.091 18.245,70.185C18.304,70.279 18.334,70.409 18.334,70.574C18.334,70.889 18.259,71.133 18.109,71.306C17.771,71.723 17.407,72.065 17.018,72.333C16.628,72.6 16.186,72.734 15.69,72.734C15.273,72.734 14.935,72.584 14.676,72.285C14.227,72.576 13.759,72.726 13.271,72.734C13.169,74.252 12.937,75.521 12.575,76.539C12.213,77.558 11.682,78.067 10.982,78.067C10.557,78.067 10.243,77.914 10.038,77.607C9.834,77.3 9.731,76.876 9.731,76.333C9.731,75.562 9.908,74.663 10.262,73.637C10.616,72.61 11.163,71.479 11.903,70.244C11.903,69.095 11.895,68.297 11.879,67.849C11.871,67.62 11.962,67.44 12.15,67.306C12.339,67.172 12.575,67.105 12.858,67.105C13.024,67.105 13.144,67.139 13.218,67.206C13.293,67.272 13.334,67.404 13.342,67.601C13.342,67.797 13.346,67.943 13.354,68.037C13.606,67.723 13.854,67.497 14.097,67.359C14.341,67.221 14.601,67.152 14.876,67.152C15.317,67.152 15.677,67.329 15.956,67.683C16.235,68.037 16.375,68.502 16.375,69.076C16.375,69.493 16.308,69.898 16.174,70.291C16.04,70.685 15.856,71.042 15.62,71.365C15.785,71.412 15.922,71.436 16.033,71.436C16.292,71.436 16.54,71.341 16.776,71.153C17.012,70.964 17.315,70.649 17.685,70.209C17.779,70.098 17.885,70.043 18.003,70.043ZM13.33,71.601C13.614,71.538 13.875,71.383 14.115,71.135C14.355,70.887 14.546,70.58 14.687,70.215C14.829,69.849 14.9,69.465 14.9,69.064C14.9,68.828 14.853,68.649 14.758,68.527C14.664,68.405 14.538,68.344 14.381,68.344C14.097,68.344 13.755,68.643 13.354,69.241C13.346,69.587 13.342,70.095 13.342,70.763C13.342,71.125 13.338,71.404 13.33,71.601ZM11.077,76.911C11.289,76.911 11.466,76.449 11.608,75.525C11.749,74.6 11.84,73.45 11.879,72.073C11.541,72.86 11.273,73.611 11.077,74.327C10.88,75.043 10.782,75.644 10.782,76.132C10.782,76.384 10.811,76.577 10.87,76.71C10.929,76.844 10.998,76.911 11.077,76.911Z" style="fill-rule:nonzero;"/>
            <path d="M23.396,69.052C23.498,69.052 23.577,69.103 23.632,69.206C23.687,69.308 23.714,69.438 23.714,69.595C23.714,69.973 23.6,70.197 23.372,70.268C22.9,70.433 22.381,70.527 21.815,70.551C21.665,71.212 21.37,71.741 20.93,72.138C20.489,72.535 19.99,72.734 19.431,72.734C18.959,72.734 18.556,72.62 18.221,72.392C17.887,72.163 17.633,71.861 17.46,71.483C17.287,71.105 17.201,70.696 17.201,70.256C17.201,69.658 17.315,69.125 17.543,68.657C17.771,68.189 18.086,67.823 18.487,67.56C18.888,67.296 19.333,67.164 19.82,67.164C20.418,67.164 20.9,67.371 21.266,67.784C21.632,68.197 21.846,68.706 21.909,69.312C22.279,69.288 22.719,69.21 23.231,69.076C23.294,69.06 23.349,69.052 23.396,69.052ZM19.525,71.483C19.777,71.483 19.995,71.381 20.18,71.176C20.365,70.972 20.489,70.677 20.552,70.291C20.308,70.126 20.121,69.91 19.991,69.642C19.862,69.375 19.797,69.092 19.797,68.793C19.797,68.667 19.809,68.541 19.832,68.415L19.773,68.415C19.459,68.415 19.197,68.566 18.988,68.869C18.78,69.172 18.676,69.599 18.676,70.15C18.676,70.582 18.76,70.913 18.929,71.141C19.099,71.369 19.297,71.483 19.525,71.483Z" style="fill-rule:nonzero;"/>
            <path d="M23.903,72.734C23.549,72.734 23.26,72.571 23.036,72.244C22.812,71.918 22.7,71.511 22.7,71.023C22.7,70.433 22.739,69.892 22.818,69.4C22.896,68.909 23.026,68.387 23.207,67.837C23.286,67.601 23.396,67.432 23.537,67.329C23.679,67.227 23.903,67.176 24.21,67.176C24.383,67.176 24.503,67.204 24.57,67.259C24.637,67.314 24.67,67.396 24.67,67.506C24.67,67.569 24.627,67.782 24.54,68.144C24.462,68.435 24.399,68.698 24.352,68.934C24.194,69.76 24.116,70.311 24.116,70.586C24.116,70.751 24.135,70.867 24.175,70.934C24.214,71.001 24.277,71.035 24.363,71.035C24.481,71.035 24.629,70.917 24.806,70.681C24.983,70.445 25.172,70.087 25.372,69.607C25.573,69.127 25.768,68.537 25.956,67.837C26.019,67.601 26.116,67.432 26.245,67.329C26.375,67.227 26.57,67.176 26.83,67.176C27.011,67.176 27.136,67.198 27.207,67.241C27.278,67.284 27.313,67.365 27.313,67.483C27.313,67.679 27.215,68.218 27.018,69.099C26.798,70.106 26.688,70.728 26.688,70.964C26.688,71.113 26.719,71.229 26.782,71.312C26.845,71.395 26.928,71.436 27.03,71.436C27.188,71.436 27.374,71.339 27.591,71.147C27.807,70.954 28.096,70.641 28.458,70.209C28.552,70.098 28.659,70.043 28.777,70.043C28.879,70.043 28.959,70.091 29.018,70.185C29.077,70.279 29.107,70.409 29.107,70.574C29.107,70.889 29.032,71.133 28.883,71.306C28.545,71.723 28.181,72.065 27.791,72.333C27.402,72.6 26.959,72.734 26.464,72.734C26.086,72.734 25.809,72.588 25.632,72.297C25.455,72.006 25.366,71.597 25.366,71.07C25.233,71.605 25.032,72.016 24.765,72.303C24.497,72.59 24.21,72.734 23.903,72.734Z" style="fill-rule:nonzero;"/>
            <path d="M32.918,68.793C33.091,68.793 33.239,68.854 33.361,68.976C33.483,69.097 33.544,69.249 33.544,69.43C33.544,69.532 33.52,69.642 33.473,69.76C33.347,70.051 33.17,70.295 32.942,70.492C32.714,70.688 32.462,70.787 32.187,70.787C31.967,70.787 31.78,70.708 31.626,70.551C31.473,70.393 31.396,70.181 31.396,69.914C31.396,69.764 31.404,69.603 31.42,69.43C31.436,69.304 31.443,69.217 31.443,69.17C31.443,69.107 31.43,69.06 31.402,69.029C31.375,68.997 31.341,68.981 31.302,68.981C31.192,68.981 31.042,69.113 30.853,69.377C30.665,69.64 30.476,69.988 30.287,70.421C30.098,70.854 29.945,71.31 29.827,71.79C29.74,72.167 29.642,72.419 29.532,72.545C29.422,72.671 29.241,72.734 28.989,72.734C28.69,72.734 28.48,72.576 28.358,72.262C28.236,71.947 28.175,71.444 28.175,70.751C28.175,69.729 28.32,68.757 28.611,67.837C28.682,67.609 28.798,67.442 28.959,67.335C29.121,67.229 29.347,67.176 29.638,67.176C29.795,67.176 29.905,67.196 29.968,67.235C30.031,67.274 30.063,67.349 30.063,67.459C30.063,67.585 30.004,67.868 29.886,68.309C29.807,68.623 29.744,68.899 29.697,69.135C29.65,69.371 29.61,69.662 29.579,70.008C29.839,69.331 30.13,68.781 30.452,68.356C30.775,67.931 31.089,67.628 31.396,67.447C31.703,67.266 31.982,67.176 32.234,67.176C32.462,67.176 32.637,67.241 32.759,67.371C32.881,67.501 32.942,67.691 32.942,67.943C32.942,68.092 32.899,68.376 32.812,68.793L32.918,68.793Z" style="fill-rule:nonzero;"/>
            <path d="M42.382,70.043C42.484,70.043 42.565,70.091 42.624,70.185C42.683,70.279 42.712,70.409 42.712,70.574C42.712,70.889 42.638,71.133 42.488,71.306C42.197,71.66 41.786,71.986 41.255,72.285C40.724,72.584 40.156,72.734 39.55,72.734C38.724,72.734 38.083,72.51 37.627,72.061C37.17,71.613 36.942,70.999 36.942,70.22C36.942,69.678 37.056,69.172 37.284,68.704C37.513,68.236 37.829,67.864 38.234,67.589C38.639,67.314 39.098,67.176 39.609,67.176C40.065,67.176 40.431,67.312 40.706,67.583C40.982,67.855 41.119,68.222 41.119,68.686C41.119,69.229 40.925,69.695 40.535,70.085C40.146,70.474 39.487,70.783 38.559,71.011C38.755,71.373 39.129,71.554 39.68,71.554C40.034,71.554 40.437,71.43 40.889,71.182C41.342,70.934 41.733,70.61 42.063,70.209C42.158,70.098 42.264,70.043 42.382,70.043ZM39.408,68.332C39.117,68.332 38.871,68.502 38.671,68.84C38.47,69.178 38.37,69.587 38.37,70.067L38.37,70.091C38.834,69.98 39.2,69.815 39.467,69.595C39.735,69.375 39.869,69.119 39.869,68.828C39.869,68.679 39.827,68.559 39.745,68.468C39.662,68.378 39.55,68.332 39.408,68.332Z" style="fill:rgb(255,0,0);fill-rule:nonzero;"/>
            <path d="M42.594,72.734C42.295,72.734 42.085,72.576 41.963,72.262C41.841,71.947 41.78,71.444 41.78,70.751C41.78,69.729 41.926,68.757 42.217,67.837C42.288,67.609 42.404,67.442 42.565,67.335C42.726,67.229 42.952,67.176 43.243,67.176C43.401,67.176 43.511,67.196 43.574,67.235C43.637,67.274 43.668,67.349 43.668,67.459C43.668,67.585 43.609,67.868 43.491,68.309C43.413,68.623 43.35,68.899 43.302,69.135C43.255,69.371 43.216,69.662 43.184,70.008C43.444,69.331 43.735,68.781 44.058,68.356C44.38,67.931 44.697,67.628 45.007,67.447C45.318,67.266 45.603,67.176 45.863,67.176C46.374,67.176 46.63,67.432 46.63,67.943C46.63,68.25 46.543,68.804 46.37,69.607C46.221,70.291 46.146,70.744 46.146,70.964C46.146,71.278 46.26,71.436 46.488,71.436C46.646,71.436 46.833,71.339 47.049,71.147C47.265,70.954 47.554,70.641 47.916,70.209C48.011,70.098 48.117,70.043 48.235,70.043C48.337,70.043 48.418,70.091 48.477,70.185C48.536,70.279 48.565,70.409 48.565,70.574C48.565,70.889 48.49,71.133 48.341,71.306C48.003,71.723 47.639,72.065 47.249,72.333C46.86,72.6 46.418,72.734 45.922,72.734C45.521,72.734 45.218,72.618 45.013,72.386C44.809,72.154 44.707,71.817 44.707,71.377C44.707,71.157 44.762,70.763 44.872,70.197C44.974,69.701 45.025,69.359 45.025,69.17C45.025,69.044 44.982,68.981 44.895,68.981C44.793,68.981 44.65,69.113 44.465,69.377C44.28,69.64 44.091,69.988 43.898,70.421C43.706,70.854 43.55,71.31 43.432,71.79C43.346,72.16 43.245,72.409 43.131,72.539C43.017,72.669 42.838,72.734 42.594,72.734Z" style="fill:rgb(255,0,0);fill-rule:nonzero;"/>
            <path d="M48.447,72.734C48.148,72.734 47.938,72.576 47.816,72.262C47.694,71.947 47.633,71.444 47.633,70.751C47.633,69.729 47.779,68.757 48.07,67.837C48.14,67.609 48.256,67.442 48.418,67.335C48.579,67.229 48.805,67.176 49.096,67.176C49.254,67.176 49.364,67.196 49.427,67.235C49.49,67.274 49.521,67.349 49.521,67.459C49.521,67.585 49.462,67.868 49.344,68.309C49.265,68.623 49.202,68.899 49.155,69.135C49.108,69.371 49.069,69.662 49.037,70.008C49.297,69.331 49.588,68.781 49.91,68.356C50.233,67.931 50.55,67.628 50.86,67.447C51.171,67.266 51.456,67.176 51.716,67.176C52.227,67.176 52.483,67.432 52.483,67.943C52.483,68.045 52.447,68.293 52.377,68.686C52.314,69.001 52.282,69.198 52.282,69.276C52.282,69.552 52.381,69.689 52.577,69.689C52.797,69.689 53.081,69.516 53.427,69.17C53.529,69.068 53.635,69.017 53.745,69.017C53.848,69.017 53.928,69.062 53.987,69.153C54.046,69.243 54.076,69.363 54.076,69.512C54.076,69.803 53.997,70.032 53.84,70.197C53.62,70.425 53.362,70.62 53.067,70.781C52.772,70.942 52.459,71.023 52.129,71.023C51.712,71.023 51.395,70.917 51.179,70.704C50.963,70.492 50.854,70.205 50.854,69.843C50.854,69.725 50.866,69.607 50.89,69.489C50.906,69.331 50.913,69.225 50.913,69.17C50.913,69.044 50.87,68.981 50.784,68.981C50.666,68.981 50.51,69.113 50.317,69.377C50.125,69.64 49.934,69.988 49.745,70.421C49.556,70.854 49.403,71.31 49.285,71.79C49.198,72.16 49.098,72.409 48.984,72.539C48.87,72.669 48.691,72.734 48.447,72.734Z" style="fill:rgb(255,0,0);fill-rule:nonzero;"/>
            <path d="M58.241,70.043C58.343,70.043 58.424,70.091 58.483,70.185C58.542,70.279 58.572,70.409 58.572,70.574C58.572,70.889 58.497,71.133 58.347,71.306C58.056,71.66 57.645,71.986 57.114,72.285C56.583,72.584 56.015,72.734 55.409,72.734C54.583,72.734 53.942,72.51 53.486,72.061C53.03,71.613 52.801,70.999 52.801,70.22C52.801,69.678 52.915,69.172 53.144,68.704C53.372,68.236 53.688,67.864 54.093,67.589C54.499,67.314 54.957,67.176 55.468,67.176C55.924,67.176 56.29,67.312 56.566,67.583C56.841,67.855 56.979,68.222 56.979,68.686C56.979,69.229 56.784,69.695 56.394,70.085C56.005,70.474 55.346,70.783 54.418,71.011C54.615,71.373 54.988,71.554 55.539,71.554C55.893,71.554 56.296,71.43 56.748,71.182C57.201,70.934 57.592,70.61 57.923,70.209C58.017,70.098 58.123,70.043 58.241,70.043ZM55.268,68.332C54.977,68.332 54.731,68.502 54.53,68.84C54.329,69.178 54.229,69.587 54.229,70.067L54.229,70.091C54.693,69.98 55.059,69.815 55.327,69.595C55.594,69.375 55.728,69.119 55.728,68.828C55.728,68.679 55.686,68.559 55.604,68.468C55.521,68.378 55.409,68.332 55.268,68.332Z" style="fill:rgb(255,0,0);fill-rule:nonzero;"/>
            <path d="M63.598,70.067C63.701,70.067 63.781,70.116 63.84,70.215C63.899,70.313 63.929,70.437 63.929,70.586C63.929,70.767 63.901,70.909 63.846,71.011C63.791,71.113 63.705,71.204 63.587,71.282C62.91,71.739 62.414,72.077 62.1,72.297L61.345,72.805C61.046,74.433 60.654,75.713 60.17,76.646C59.687,77.578 59.071,78.044 58.324,78.044C57.923,78.044 57.596,77.92 57.344,77.672C57.093,77.424 56.967,77.1 56.967,76.699C56.967,76.14 57.187,75.54 57.628,74.899C58.068,74.258 58.894,73.469 60.106,72.533L60.176,72.073C60.043,72.285 59.868,72.449 59.651,72.563C59.435,72.677 59.221,72.734 59.008,72.734C58.52,72.734 58.131,72.557 57.84,72.203C57.549,71.849 57.403,71.385 57.403,70.81C57.403,70.181 57.549,69.585 57.84,69.023C58.131,68.46 58.518,68.008 59.002,67.666C59.486,67.324 59.999,67.152 60.542,67.152C60.715,67.152 60.831,67.186 60.89,67.253C60.949,67.32 60.998,67.44 61.038,67.613C61.187,67.581 61.36,67.565 61.557,67.565C61.754,67.565 61.893,67.595 61.976,67.654C62.058,67.713 62.1,67.829 62.1,68.002C62.1,68.096 62.096,68.171 62.088,68.226C62.057,68.47 61.958,69.088 61.793,70.079C61.762,70.268 61.728,70.474 61.693,70.698C61.657,70.923 61.62,71.16 61.581,71.412C62.186,70.94 62.768,70.523 63.327,70.161C63.429,70.098 63.52,70.067 63.598,70.067ZM59.433,71.542C59.614,71.542 59.787,71.432 59.952,71.212C60.117,70.991 60.235,70.677 60.306,70.268L60.684,68.25C60.361,68.258 60.062,68.382 59.787,68.622C59.512,68.861 59.291,69.178 59.126,69.571C58.961,69.965 58.878,70.382 58.878,70.822C58.878,71.066 58.928,71.247 59.026,71.365C59.124,71.483 59.26,71.542 59.433,71.542ZM58.454,76.899C58.65,76.899 58.872,76.663 59.12,76.191C59.368,75.719 59.606,74.968 59.834,73.937C59.228,74.457 58.792,74.925 58.524,75.342C58.257,75.759 58.123,76.124 58.123,76.439C58.123,76.573 58.149,76.683 58.2,76.769C58.251,76.856 58.336,76.899 58.454,76.899Z" style="fill:rgb(255,0,0);fill-rule:nonzero;"/>
            <path d="M64.625,66.397C64.295,66.397 64.047,66.321 63.882,66.167C63.716,66.014 63.634,65.799 63.634,65.524C63.634,65.249 63.742,65.019 63.958,64.834C64.175,64.649 64.444,64.556 64.767,64.556C65.058,64.556 65.294,64.627 65.475,64.769C65.656,64.91 65.746,65.111 65.746,65.371C65.746,65.685 65.644,65.935 65.439,66.12C65.235,66.305 64.963,66.397 64.625,66.397ZM64.531,72.734C64.019,72.734 63.648,72.553 63.415,72.191C63.183,71.829 63.067,71.349 63.067,70.751C63.067,70.397 63.113,69.943 63.203,69.389C63.294,68.834 63.41,68.317 63.551,67.837C63.622,67.585 63.716,67.412 63.834,67.318C63.952,67.223 64.141,67.176 64.401,67.176C64.802,67.176 65.003,67.31 65.003,67.577C65.003,67.774 64.928,68.23 64.778,68.946C64.59,69.811 64.495,70.397 64.495,70.704C64.495,70.94 64.527,71.121 64.59,71.247C64.653,71.373 64.759,71.436 64.908,71.436C65.05,71.436 65.227,71.337 65.439,71.141C65.652,70.944 65.935,70.633 66.289,70.209C66.383,70.098 66.489,70.043 66.607,70.043C66.71,70.043 66.79,70.091 66.849,70.185C66.908,70.279 66.938,70.409 66.938,70.574C66.938,70.889 66.863,71.133 66.714,71.306C65.935,72.258 65.207,72.734 64.531,72.734Z" style="fill:rgb(255,0,0);fill-rule:nonzero;"/>
            <path d="M68.177,72.993C67.768,72.993 67.455,72.899 67.239,72.71C67.022,72.521 66.914,72.309 66.914,72.073C66.914,71.868 66.989,71.691 67.138,71.542C67.288,71.393 67.508,71.318 67.799,71.318C67.901,71.318 68.021,71.328 68.159,71.347C68.297,71.367 68.401,71.381 68.472,71.389C68.464,71.184 68.419,70.991 68.336,70.81C68.253,70.629 68.149,70.454 68.023,70.285C67.898,70.116 67.78,69.969 67.669,69.843C67.426,70.307 67.184,70.692 66.944,70.999C66.704,71.306 66.442,71.597 66.159,71.872C66.017,72.014 65.868,72.085 65.711,72.085C65.585,72.085 65.482,72.04 65.404,71.949C65.325,71.859 65.286,71.747 65.286,71.613C65.286,71.455 65.341,71.31 65.451,71.176L65.604,70.987C66.037,70.452 66.364,70.012 66.584,69.666C66.718,69.438 66.875,69.133 67.056,68.751C67.237,68.37 67.414,67.974 67.587,67.565C67.736,67.219 68.047,67.046 68.519,67.046C68.739,67.046 68.893,67.066 68.979,67.105C69.066,67.145 69.109,67.207 69.109,67.294C69.109,67.341 69.093,67.416 69.062,67.518C69.03,67.62 68.987,67.723 68.932,67.825C68.79,68.108 68.72,68.348 68.72,68.545C68.72,68.663 68.761,68.793 68.843,68.934C68.926,69.076 69.054,69.253 69.227,69.465C69.479,69.796 69.669,70.077 69.799,70.309C69.929,70.541 69.994,70.795 69.994,71.07C69.994,71.149 69.986,71.259 69.97,71.4C70.356,71.251 70.808,70.854 71.327,70.209C71.422,70.098 71.528,70.043 71.646,70.043C71.748,70.043 71.829,70.091 71.888,70.185C71.947,70.279 71.976,70.409 71.976,70.574C71.976,70.873 71.902,71.117 71.752,71.306C71.359,71.794 70.983,72.126 70.625,72.303C70.267,72.48 69.825,72.576 69.298,72.592C68.983,72.86 68.609,72.993 68.177,72.993Z" style="fill:rgb(255,0,0);fill-rule:nonzero;"/>
            <path d="M76.283,70.043C76.386,70.043 76.466,70.091 76.525,70.185C76.584,70.279 76.614,70.409 76.614,70.574C76.614,70.889 76.539,71.133 76.39,71.306C76.051,71.723 75.682,72.065 75.28,72.333C74.879,72.6 74.419,72.734 73.9,72.734C72.295,72.734 71.493,71.605 71.493,69.347C71.493,69.001 71.504,68.651 71.528,68.297L71.068,68.297C70.832,68.297 70.672,68.254 70.59,68.167C70.507,68.081 70.466,67.943 70.466,67.754C70.466,67.314 70.643,67.093 70.997,67.093L71.67,67.093C71.803,66.228 72.008,65.437 72.283,64.722C72.559,64.006 72.891,63.435 73.28,63.011C73.67,62.586 74.089,62.373 74.537,62.373C74.867,62.373 75.127,62.519 75.316,62.81C75.505,63.101 75.599,63.467 75.599,63.907C75.599,65.127 75.088,66.189 74.065,67.093L75.387,67.093C75.512,67.093 75.603,67.121 75.658,67.176C75.713,67.231 75.741,67.333 75.741,67.483C75.741,68.026 75.296,68.297 74.407,68.297L72.968,68.297C72.952,68.69 72.944,68.997 72.944,69.217C72.944,70.036 73.04,70.61 73.233,70.94C73.426,71.271 73.731,71.436 74.148,71.436C74.486,71.436 74.785,71.334 75.044,71.129C75.304,70.924 75.611,70.618 75.965,70.209C76.059,70.098 76.165,70.043 76.283,70.043ZM74.218,63.506C74.1,63.506 73.969,63.654 73.823,63.949C73.678,64.244 73.54,64.653 73.41,65.176C73.28,65.699 73.172,66.279 73.086,66.916C73.55,66.515 73.898,66.065 74.13,65.565C74.362,65.066 74.478,64.611 74.478,64.202C74.478,63.738 74.391,63.506 74.218,63.506Z" style="fill:rgb(255,0,0);fill-rule:nonzero;"/>
            <path d="M76.496,72.734C76.197,72.734 75.986,72.576 75.864,72.262C75.743,71.947 75.682,71.444 75.682,70.751C75.682,69.729 75.827,68.757 76.118,67.837C76.189,67.609 76.305,67.442 76.466,67.335C76.628,67.229 76.854,67.176 77.145,67.176C77.302,67.176 77.412,67.196 77.475,67.235C77.538,67.274 77.57,67.349 77.57,67.459C77.57,67.585 77.511,67.868 77.393,68.309C77.314,68.623 77.251,68.899 77.204,69.135C77.157,69.371 77.117,69.662 77.086,70.008C77.345,69.331 77.636,68.781 77.959,68.356C78.282,67.931 78.598,67.628 78.909,67.447C79.22,67.266 79.505,67.176 79.764,67.176C80.276,67.176 80.531,67.432 80.531,67.943C80.531,68.045 80.496,68.293 80.425,68.686C80.362,69.001 80.331,69.198 80.331,69.276C80.331,69.552 80.429,69.689 80.626,69.689C80.846,69.689 81.129,69.516 81.475,69.17C81.578,69.068 81.684,69.017 81.794,69.017C81.896,69.017 81.977,69.062 82.036,69.153C82.095,69.243 82.124,69.363 82.124,69.512C82.124,69.803 82.046,70.032 81.888,70.197C81.668,70.425 81.41,70.62 81.115,70.781C80.82,70.942 80.508,71.023 80.177,71.023C79.76,71.023 79.444,70.917 79.227,70.704C79.011,70.492 78.903,70.205 78.903,69.843C78.903,69.725 78.915,69.607 78.938,69.489C78.954,69.331 78.962,69.225 78.962,69.17C78.962,69.044 78.919,68.981 78.832,68.981C78.714,68.981 78.559,69.113 78.366,69.377C78.173,69.64 77.983,69.988 77.794,70.421C77.605,70.854 77.452,71.31 77.334,71.79C77.247,72.16 77.147,72.409 77.033,72.539C76.919,72.669 76.74,72.734 76.496,72.734Z" style="fill:rgb(255,0,0);fill-rule:nonzero;"/>
            <path d="M86.29,70.043C86.392,70.043 86.473,70.091 86.532,70.185C86.591,70.279 86.62,70.409 86.62,70.574C86.62,70.889 86.545,71.133 86.396,71.306C86.105,71.66 85.694,71.986 85.163,72.285C84.632,72.584 84.064,72.734 83.458,72.734C82.632,72.734 81.991,72.51 81.534,72.061C81.078,71.613 80.85,70.999 80.85,70.22C80.85,69.678 80.964,69.172 81.192,68.704C81.42,68.236 81.737,67.864 82.142,67.589C82.547,67.314 83.005,67.176 83.517,67.176C83.973,67.176 84.339,67.312 84.614,67.583C84.89,67.855 85.027,68.222 85.027,68.686C85.027,69.229 84.832,69.695 84.443,70.085C84.054,70.474 83.395,70.783 82.467,71.011C82.663,71.373 83.037,71.554 83.588,71.554C83.942,71.554 84.345,71.43 84.797,71.182C85.249,70.934 85.641,70.61 85.971,70.209C86.066,70.098 86.172,70.043 86.29,70.043ZM83.316,68.332C83.025,68.332 82.779,68.502 82.579,68.84C82.378,69.178 82.278,69.587 82.278,70.067L82.278,70.091C82.742,69.98 83.108,69.815 83.375,69.595C83.643,69.375 83.776,69.119 83.776,68.828C83.776,68.679 83.735,68.559 83.652,68.468C83.57,68.378 83.458,68.332 83.316,68.332Z" style="fill:rgb(255,0,0);fill-rule:nonzero;"/>
            <path d="M90.432,68.793C90.605,68.793 90.752,68.854 90.874,68.976C90.996,69.097 91.057,69.249 91.057,69.43C91.057,69.532 91.033,69.642 90.986,69.76C90.86,70.051 90.683,70.295 90.455,70.492C90.227,70.688 89.975,70.787 89.7,70.787C89.48,70.787 89.293,70.708 89.139,70.551C88.986,70.393 88.909,70.181 88.909,69.914C88.909,69.764 88.917,69.603 88.933,69.43C88.949,69.304 88.957,69.217 88.957,69.17C88.957,69.107 88.943,69.06 88.915,69.029C88.888,68.997 88.854,68.981 88.815,68.981C88.705,68.981 88.555,69.113 88.367,69.377C88.178,69.64 87.989,69.988 87.8,70.421C87.611,70.854 87.458,71.31 87.34,71.79C87.253,72.167 87.155,72.419 87.045,72.545C86.935,72.671 86.754,72.734 86.502,72.734C86.203,72.734 85.993,72.576 85.871,72.262C85.749,71.947 85.688,71.444 85.688,70.751C85.688,69.729 85.834,68.757 86.125,67.837C86.195,67.609 86.311,67.442 86.473,67.335C86.634,67.229 86.86,67.176 87.151,67.176C87.309,67.176 87.419,67.196 87.482,67.235C87.545,67.274 87.576,67.349 87.576,67.459C87.576,67.585 87.517,67.868 87.399,68.309C87.32,68.623 87.257,68.899 87.21,69.135C87.163,69.371 87.124,69.662 87.092,70.008C87.352,69.331 87.643,68.781 87.965,68.356C88.288,67.931 88.603,67.628 88.909,67.447C89.216,67.266 89.495,67.176 89.747,67.176C89.975,67.176 90.15,67.241 90.272,67.371C90.394,67.501 90.455,67.691 90.455,67.943C90.455,68.092 90.412,68.376 90.325,68.793L90.432,68.793Z" style="fill:rgb(255,0,0);fill-rule:nonzero;"/>
            <rect x="36.553" y="73.56" width="54.386" height="0.59" style="fill:rgb(255,0,0);fill-rule:nonzero;"/>
        </g>
        <g transform="matrix(0.00442255,-0.0206618,-0.0322485,-0.00690263,-11.9483,74.3131)">
            <path d="M3128.36,353.559C3122.77,354.613 3118.89,357.492 3114.79,359.695C3020.61,410.469 2922.06,449.754 2817.41,472.953C2656.47,508.617 2500.16,492.289 2348.84,428.629C2287.94,403.004 2233.82,365.754 2186.74,319.297C2152.76,285.766 2128.08,246.051 2117.39,198.77C2115.38,189.871 2113.99,180.746 2116.28,171.602C2117.42,167.004 2119.27,162.75 2124.47,161.586C2129.82,160.398 2132.92,163.777 2135.72,167.672C2144.46,179.836 2153.83,191.594 2161.96,204.148C2200.58,263.754 2253.73,306.68 2315.89,339.43C2395.52,381.387 2480.76,403.172 2570.02,411.375C2686.31,422.063 2798.25,402.801 2907.72,364.629C2963.95,345.023 3019,322.875 3070.84,293.316C3073.48,291.813 3076.02,290.129 3078.56,288.461C3078.87,288.258 3078.86,287.578 3079.04,286.969C3076.27,285.063 3073.18,286.148 3070.3,286.203C3017.96,287.203 2965.66,287.297 2913.62,280.348C2899.97,278.527 2886.68,275.23 2873.97,269.832C2868.1,267.336 2862.53,264.281 2857.95,259.754C2847.96,249.859 2850.52,238.836 2864.06,235.125C2885.94,229.133 2908.34,226.02 2930.99,225.219C2976.67,223.605 3022.38,222.457 3068.06,220.801C3123.75,218.773 3178.9,211.91 3233.59,201.258C3236.32,200.727 3239.09,200.211 3241.86,199.93C3266.97,197.371 3285.14,216.672 3281.14,241.625C3279.79,250.02 3276.23,257.613 3272.36,265.063C3264.61,279.957 3255.68,294.148 3246.42,308.113C3226.49,338.172 3206.44,368.152 3186.3,398.066C3175.62,413.902 3163.43,428.523 3149.48,441.617C3139.43,451.043 3131.1,461.945 3122.48,472.613C3117.06,479.328 3111.64,486.066 3105.93,492.539C3099.28,500.063 3091.64,502.234 3084.25,499.219C3076.88,496.215 3072.16,488.188 3072.46,478.723C3072.73,470.184 3075.18,462.047 3079.32,454.746C3097.25,423.137 3106.82,387.426 3127.34,357.117C3127.83,356.391 3127.86,355.355 3128.36,353.559Z"/>
        </g>
    </g>
</svg>
